<svg width="340" height="296" viewBox="0 0 340 296" fill="none" xmlns="http://www.w3.org/2000/svg">
<path d="M23.8811 209.682C23.8811 210.34 22.5231 210.913 20.4951 211.229C19.4711 211.388 18.6647 212.189 18.5041 213.206C18.1861 215.22 17.6084 216.568 16.946 216.568C16.2836 216.568 15.706 215.22 15.3879 213.206C15.2274 212.189 14.4207 211.388 13.3967 211.229C11.3671 210.913 10.0059 210.34 10.0059 209.682C10.0059 209.021 11.3659 208.446 13.3942 208.133C14.4195 207.974 15.2275 207.173 15.388 206.155C15.7061 204.139 16.2838 202.791 16.946 202.791C17.6083 202.791 18.186 204.139 18.504 206.155C18.6645 207.173 19.4724 207.974 20.4977 208.133C22.5243 208.446 23.8811 209.021 23.8811 209.682Z" fill="white"/>
<path d="M78.1051 264.593C77.9838 265.138 76.7522 265.367 75.0128 265.26C74.1345 265.205 73.3182 265.722 72.9974 266.536C72.3621 268.147 71.6343 269.16 71.0853 269.039C70.5362 268.919 70.3062 267.696 70.4143 265.969C70.4689 265.097 69.9481 264.286 69.1287 263.968C67.5046 263.337 66.4821 262.613 66.6035 262.068C66.7256 261.52 67.9589 261.292 69.6981 261.401C70.5772 261.456 71.3949 260.939 71.716 260.124C72.3517 258.511 73.0795 257.499 73.6285 257.619C74.1775 257.74 74.4075 258.962 74.299 260.691C74.2442 261.564 74.7659 262.375 75.5865 262.693C77.2086 263.322 78.2273 264.045 78.1051 264.593Z" fill="white"/>
<path d="M270.093 15.5464C269.972 16.0915 268.74 16.3199 267.001 16.2126C266.123 16.1584 265.306 16.6754 264.986 17.489C264.35 19.1004 263.623 20.1128 263.074 19.9923C262.525 19.8718 262.294 18.6491 262.403 16.922C262.457 16.0499 261.936 15.2393 261.117 14.9209C259.493 14.2898 258.47 13.5665 258.592 13.0214C258.714 12.4732 259.947 12.2447 261.686 12.3538C262.565 12.409 263.383 11.8918 263.704 11.0772C264.34 9.46401 265.068 8.4517 265.617 8.57219C266.166 8.69269 266.396 9.91527 266.287 11.6443C266.232 12.5172 266.754 13.3284 267.575 13.6465C269.197 14.2753 270.215 14.9982 270.093 15.5464Z" fill="white"/>
<path d="M337.141 176.355C338.215 176.355 339.086 175.49 339.086 174.424C339.086 173.357 338.215 172.492 337.141 172.492C336.066 172.492 335.195 173.357 335.195 174.424C335.195 175.49 336.066 176.355 337.141 176.355Z" fill="white"/>
<path d="M280.764 50.5733C281.186 49.6699 280.791 48.5978 279.881 48.1787C278.971 47.7596 277.891 48.1522 277.469 49.0556C277.047 49.959 277.443 51.0311 278.353 51.4502C279.262 51.8693 280.342 51.4767 280.764 50.5733Z" fill="white"/>
<path d="M317.96 84.6285C319.218 84.4328 320.079 83.2611 319.882 82.0113C319.685 80.7615 318.505 79.907 317.246 80.1027C315.987 80.2984 315.127 81.4702 315.324 82.7199C315.521 83.9697 316.701 84.8242 317.96 84.6285Z" fill="white"/>
<path d="M105.271 5.86347C106.389 4.84588 106.465 3.12095 105.44 2.01073C104.415 0.900517 102.678 0.825425 101.56 1.84302C100.442 2.86062 100.366 4.58556 101.391 5.69577C102.416 6.80599 104.153 6.88107 105.271 5.86347Z" fill="white"/>
<path d="M336.604 218.273C337.512 217.068 337.265 215.359 336.05 214.456C334.836 213.554 333.115 213.8 332.206 215.006C331.297 216.212 331.545 217.921 332.76 218.823C333.974 219.725 335.695 219.479 336.604 218.273Z" fill="white"/>
<path d="M4.7551 158.686C5.03242 157.52 4.30516 156.352 3.13074 156.077C1.95631 155.801 0.779439 156.523 0.502124 157.689C0.224809 158.855 0.952062 160.024 2.12649 160.299C3.30092 160.575 4.47779 159.853 4.7551 158.686Z" fill="white"/>
<path d="M286.421 284.49C286.812 284.102 286.812 283.473 286.421 283.085C286.03 282.697 285.397 282.697 285.006 283.085C284.616 283.473 284.616 284.102 285.006 284.49C285.397 284.877 286.03 284.877 286.421 284.49Z" fill="white"/>
<path d="M336.099 128.993C336.49 128.606 336.49 127.977 336.099 127.589C335.708 127.201 335.075 127.201 334.684 127.589C334.293 127.977 334.293 128.606 334.684 128.993C335.075 129.381 335.708 129.381 336.099 128.993Z" fill="white"/>
<path d="M303.266 46.2145C303.332 45.5672 302.857 44.9893 302.205 44.9236C301.553 44.8579 300.971 45.3293 300.905 45.9765C300.839 46.6238 301.314 47.2017 301.965 47.2674C302.617 47.3331 303.199 46.8617 303.266 46.2145Z" fill="white"/>
<path d="M302.597 116.782C303.325 116.505 303.69 115.694 303.411 114.971C303.132 114.247 302.315 113.886 301.587 114.163C300.858 114.44 300.494 115.25 300.773 115.974C301.052 116.697 301.868 117.059 302.597 116.782Z" fill="white"/>
<path d="M30.4194 120.11C30.4183 120.726 29.9141 121.225 29.2935 121.224C28.6729 121.223 28.1708 120.722 28.1719 120.106C28.173 119.49 28.6771 118.991 29.2977 118.992C29.9184 118.993 30.4205 119.494 30.4194 120.11Z" fill="white"/>
<path d="M32.4877 89.2964C33.0131 88.1602 32.5112 86.8163 31.3669 86.2947C30.2226 85.7731 28.8691 86.2713 28.3438 87.4076C27.8184 88.5438 28.3202 89.8877 29.4646 90.4093C30.6089 90.9309 31.9624 90.4326 32.4877 89.2964Z" fill="white"/>
<path d="M70.6759 94.9772C70.6759 95.5463 69.5008 96.0427 67.7456 96.3161C66.8595 96.4541 66.1615 97.1471 66.0225 98.027C65.7473 99.7697 65.2474 100.936 64.6741 100.936C64.1008 100.936 63.601 99.7697 63.3258 98.027C63.1868 97.147 62.4887 96.4539 61.6024 96.3161C59.8459 96.0428 58.668 95.5464 58.668 94.9772C58.668 94.4049 59.8449 93.9079 61.6002 93.6365C62.4876 93.4993 63.1868 92.8058 63.3258 91.9248C63.601 90.1802 64.1009 89.0137 64.6741 89.0137C65.2473 89.0137 65.7472 90.1803 66.0224 91.9249C66.1614 92.8058 66.8605 93.4991 67.7477 93.6365C69.5017 93.908 70.6759 94.4049 70.6759 94.9772Z" fill="white"/>
<path d="M68.2891 49.155C68.2891 49.7242 67.114 50.2206 65.3588 50.4939C64.4726 50.6319 63.7748 51.3249 63.6357 52.2048C63.3605 53.9475 62.8606 55.1143 62.2874 55.1143C61.7142 55.1143 61.2142 53.9475 60.9391 52.2048C60.8001 51.3248 60.102 50.6318 59.2157 50.4939C57.4592 50.2206 56.2812 49.7243 56.2812 49.155C56.2812 48.5827 57.4582 48.0857 59.2135 47.8143C60.1009 47.6771 60.8001 46.9836 60.9391 46.1026C61.2143 44.358 61.7142 43.1914 62.2874 43.1914C62.8606 43.1914 63.3605 44.358 63.6357 46.1026C63.7747 46.9835 64.4738 47.6769 65.361 47.8142C67.115 48.0858 68.2891 48.5827 68.2891 49.155Z" fill="white"/>
<path d="M52.8703 237.546C53.1477 236.38 52.4204 235.211 51.246 234.936C50.0715 234.661 48.8947 235.383 48.6174 236.549C48.34 237.715 49.0673 238.883 50.2417 239.159C51.4162 239.434 52.593 238.712 52.8703 237.546Z" fill="white"/>
<path d="M288.56 242.344C288.559 242.961 288.055 243.459 287.434 243.458C286.814 243.457 286.311 242.956 286.313 242.34C286.314 241.724 286.818 241.225 287.438 241.227C288.059 241.228 288.561 241.728 288.56 242.344Z" fill="white"/>
<path d="M99.5632 292.1C100.541 291.312 100.691 289.886 99.8974 288.915C99.1041 287.945 97.6684 287.796 96.6905 288.584C95.7126 289.371 95.563 290.797 96.3563 291.768C97.1495 292.739 98.5853 292.887 99.5632 292.1Z" fill="white"/>
<path d="M242.962 165.299L242.962 243.945C242.962 257.171 232.061 267.989 218.745 267.989L138.666 267.989C125.351 267.989 114.449 257.171 114.449 243.945L114.449 165.299C114.449 157.511 118.227 150.563 124.047 146.162C128.12 143.083 133.189 141.254 138.666 141.254L218.745 141.254C224.735 141.254 230.235 143.446 234.476 147.061C239.664 151.477 242.962 158.02 242.962 165.299Z" fill="white"/>
<path d="M218.743 270.083L138.668 270.083C124.154 270.083 112.346 258.358 112.346 243.946L112.346 165.298C112.346 150.886 124.154 139.162 138.668 139.162L218.743 139.162C233.258 139.162 245.066 150.886 245.066 165.298L245.066 243.946C245.066 258.358 233.258 270.083 218.743 270.083ZM138.668 143.345C126.477 143.345 116.558 153.193 116.558 165.298L116.558 243.946C116.558 256.052 126.477 265.9 138.668 265.9L218.743 265.9C230.935 265.9 240.853 256.052 240.853 243.946L240.853 165.298C240.853 153.193 230.935 143.345 218.743 143.345L138.668 143.345Z" fill="#371B45"/>
<path d="M149.569 138.109C120.139 148.143 109.762 177.652 105.419 177.741C101.077 177.83 98.2792 170.445 94.5017 165.565C87.7048 156.781 78.6416 164.746 60.9454 160.397C52.2129 158.252 61.2092 184.29 65.0682 194.15C70.0913 206.986 81.0547 222.747 101.431 222.324C131.12 221.708 132.018 185.463 132.018 185.463" fill="white"/>
<g opacity="0.25">
<path d="M134.994 177.428L132.019 185.463C132.019 185.463 131.119 221.709 101.433 222.326C81.0563 222.749 70.0888 206.987 65.0651 194.152C61.2056 184.293 52.2125 158.252 60.9424 160.401C61.1378 160.448 61.3326 160.495 61.5222 160.536C62.67 168.509 66.7454 180.001 69.0305 185.834C70.847 190.483 92.2289 179.441 92.3716 185.155C92.5243 191.564 80.135 201.284 84.7053 207.578C88.6648 213.041 96.9677 214.175 105.392 214.009C129.639 213.533 120.988 182.237 134.994 177.428Z" fill="#371B45"/>
</g>
<path d="M100.625 224.424C91.2425 224.424 82.9798 221.168 76.0526 214.737C69.317 208.484 65.2932 200.502 63.1039 194.908C62.1923 192.579 59.0584 184.364 57.0087 176.471C53.948 164.684 55.2328 161.279 56.6939 159.629C57.3545 158.883 58.8498 157.728 61.4501 158.367C68.8891 160.196 74.8473 159.743 79.635 159.379C86.0882 158.889 91.6627 158.466 96.1708 164.292C97.3334 165.793 98.3832 167.479 99.3984 169.109C101.247 172.078 103.333 175.428 105.162 175.64C106.031 175.024 107.954 172.216 109.661 169.724C115.972 160.505 127.721 143.347 148.884 136.132C149.983 135.756 151.183 136.338 151.56 137.43C151.938 138.523 151.352 139.712 150.252 140.087C130.416 146.85 119.604 162.64 113.144 172.075C109.63 177.207 107.866 179.783 105.461 179.832C101.16 179.934 98.4524 175.543 95.8157 171.309C94.8559 169.768 93.8631 168.174 92.8308 166.84C89.8372 162.971 86.721 163.034 79.9563 163.549C74.8674 163.936 68.5345 164.417 60.4384 162.428C60.0211 162.324 59.8681 162.377 59.8665 162.377C59.8589 162.384 58.1904 164.005 60.9491 174.887C62.9315 182.706 66.1049 191.028 67.0302 193.393C71.0246 203.601 80.8053 220.669 101.386 220.234C112.761 219.998 121 214.181 125.875 202.944C129.636 194.275 129.909 185.497 129.911 185.41C129.942 184.256 130.909 183.339 132.07 183.373C133.232 183.402 134.151 184.361 134.122 185.514C134.113 185.901 133.841 195.085 129.793 204.485C124.294 217.253 114.502 224.145 101.474 224.415C101.19 224.421 100.907 224.424 100.625 224.424Z" fill="#371B45"/>
<path d="M108.469 223.506C108.064 223.506 107.655 223.391 107.294 223.149C106.33 222.504 106.075 221.204 106.725 220.246C119.3 201.719 105.705 178.784 105.566 178.554C104.968 177.564 105.291 176.28 106.288 175.685C107.285 175.091 108.579 175.411 109.177 176.402C109.801 177.432 124.276 201.872 110.218 222.583C109.811 223.183 109.146 223.506 108.469 223.506Z" fill="#371B45"/>
<path d="M62.9606 165.987C49.1376 163.798 48.9022 152.469 54.8098 147.758C58.4318 144.868 70.3004 143.025 71.9279 149.16C73.4448 154.879 64.2116 155.398 64.2711 158.001C64.3069 159.552 65.53 161.073 70.5816 161.532" fill="white"/>
<path d="M64.2703 158.001C64.3072 159.554 65.5293 161.075 70.5782 161.535L62.9593 165.989C61.127 165.697 59.5316 165.247 58.1579 164.672C56.1934 160.62 57.5729 155.821 60.9221 153.15C63.0488 151.451 68.0193 150.117 72.0893 150.546C71.8998 154.984 64.2177 155.628 64.2703 158.001Z" fill="white"/>
<g opacity="0.25">
<path d="M64.2703 158.001C64.3072 159.554 65.5293 161.075 70.5782 161.535L62.9593 165.989C61.127 165.697 59.5316 165.247 58.1579 164.672C56.1934 160.62 57.5729 155.821 60.9221 153.15C62.318 152.035 65.1955 152.649 67.6838 151.339C70.2549 149.986 71.8344 145.866 72.0893 150.546C71.8998 154.984 64.2177 155.628 64.2703 158.001Z" fill="#371B45"/>
</g>
<path d="M62.9632 168.081C62.8531 168.081 62.7414 168.072 62.6292 168.054C55.6025 166.941 50.7857 163.358 49.4138 158.223C48.2491 153.863 49.8876 149.003 53.4912 146.129C56.5876 143.658 63.9874 142.028 68.8874 143.631C71.5747 144.509 73.3304 146.238 73.9648 148.629C75.3242 153.755 70.6877 156.09 68.1966 157.345C67.6718 157.61 66.9441 157.976 66.5209 158.256C66.945 158.723 68.3162 159.228 70.7736 159.451C71.9319 159.556 72.7851 160.574 72.6791 161.724C72.5731 162.874 71.5485 163.719 70.3897 163.616C65.0068 163.127 62.2398 161.254 62.1656 158.051C62.1123 155.72 64.3323 154.602 66.2908 153.615C69.3623 152.068 70.313 151.284 69.8911 149.694C69.7957 149.333 69.5046 148.236 67.5697 147.603C63.9672 146.424 58.0696 147.841 56.1291 149.389C53.8031 151.244 52.7404 154.363 53.4851 157.15C54.4242 160.665 57.9072 163.071 63.2922 163.924C64.4409 164.106 65.2235 165.178 65.0404 166.318C64.8753 167.347 63.9803 168.081 62.9632 168.081Z" fill="#371B45"/>
<path d="M78.1348 161.492C61.6902 162.675 52.9313 155.162 44.3626 160.328C37.7937 164.291 39.8919 178.323 44.7207 183.118C51.9599 190.306 65.2522 194.632 69.7451 195.279C78.593 196.553 90.4683 197.283 93.7191 180.196" fill="white"/>
<path d="M78.2874 163.579C75.6789 163.786 73.0468 163.821 70.4374 163.635C67.8284 163.452 65.2447 163.074 62.7258 162.603C60.2059 162.141 57.7475 161.576 55.3829 161.191C53.0209 160.814 50.7572 160.627 48.7596 161.052C47.7586 161.263 46.8136 161.621 45.9121 162.124L45.5735 162.311L45.3213 162.486C45.1422 162.587 45.0037 162.75 44.8368 162.871C44.5451 163.175 44.2466 163.483 44.0118 163.879C43.014 165.41 42.5818 167.606 42.5638 169.801C42.5523 172.014 42.9214 174.295 43.609 176.424C43.9512 177.488 44.3861 178.513 44.9063 179.437C45.1596 179.907 45.4518 180.328 45.7446 180.73C46.0679 181.128 46.3053 181.414 46.7734 181.829C50.09 184.982 54.3502 187.414 58.7551 189.376C60.9671 190.355 63.2444 191.219 65.5411 191.954C66.6873 192.302 67.8509 192.65 68.9746 192.889C70.0172 193.121 71.296 193.284 72.4818 193.432C74.8744 193.716 77.2327 193.828 79.4657 193.548C81.6993 193.276 83.768 192.564 85.5056 191.363C86.3775 190.766 87.1757 190.052 87.9023 189.24C88.6152 188.419 89.2775 187.514 89.8442 186.521C91.0099 184.551 91.865 182.312 92.6848 180.004L92.6917 179.983C92.8875 179.434 93.4936 179.145 94.047 179.339C94.5024 179.498 94.7794 179.936 94.7541 180.392C94.6104 182.97 94.0944 185.579 93.0308 188.084C92.5091 189.337 91.8246 190.558 90.9684 191.682C90.1254 192.814 89.1055 193.851 87.9408 194.712C85.6057 196.455 82.7724 197.395 80.0391 197.772C77.2869 198.154 74.5869 198.04 71.9948 197.773C70.6879 197.626 69.4685 197.499 68.0531 197.215C66.7163 196.948 65.4679 196.592 64.2085 196.228C61.7127 195.475 59.2833 194.573 56.9012 193.539C52.1577 191.453 47.5195 188.918 43.5231 185.198C43.0462 184.789 42.4448 184.143 41.9962 183.557C41.5498 182.953 41.1369 182.338 40.7962 181.709C40.0943 180.454 39.5589 179.165 39.1377 177.856C38.3005 175.235 37.8635 172.532 37.8793 169.757C37.8893 168.37 38.0346 166.962 38.3626 165.547C38.6976 164.136 39.2067 162.701 40.0844 161.365C40.5004 160.691 41.0522 160.068 41.6424 159.489C41.9667 159.223 42.2658 158.929 42.6249 158.703L43.1498 158.352L43.6331 158.081C44.9189 157.362 46.348 156.825 47.8038 156.523C49.2623 156.214 50.7266 156.147 52.1224 156.208C53.5214 156.274 54.8598 156.463 56.1536 156.689C58.7389 157.15 61.1688 157.747 63.5814 158.222C68.3907 159.209 73.1705 159.687 77.9831 159.407L77.9962 159.406C79.1572 159.338 80.154 160.218 80.2224 161.371C80.2897 162.509 79.4252 163.488 78.2874 163.579Z" fill="#371B45"/>
<path d="M78.1348 161.492C61.6902 162.675 52.9313 155.162 44.3626 160.328C37.7937 164.291 39.8919 178.323 44.7207 183.118C51.9599 190.306 65.2522 194.632 69.7451 195.279C78.593 196.553 90.4683 197.283 93.7191 180.196" fill="white"/>
<g opacity="0.25">
<path d="M93.4671 181.4C89.8972 197.246 78.3825 196.519 69.7469 195.28C65.2503 194.632 51.9606 190.303 44.7209 183.12C41.5038 179.921 39.4925 172.611 40.4612 166.924C41.0562 171.085 42.7043 175.079 44.8893 177.254C52.4029 184.715 66.1928 189.2 70.8578 189.875C78.5662 190.983 88.4913 191.699 93.4671 181.4Z" fill="#371B45"/>
</g>
<path d="M78.2852 163.578C75.6751 163.755 73.0456 163.754 70.4419 163.546C67.8388 163.346 65.2629 162.952 62.7514 162.465C60.2378 161.986 57.7847 161.405 55.4137 161.001C53.0459 160.602 50.7554 160.396 48.712 160.833C47.689 161.048 46.7201 161.413 45.7998 161.926L45.4539 162.117L45.1886 162.301C44.9995 162.407 44.8536 162.577 44.6788 162.704C44.3724 163.022 44.0607 163.345 43.817 163.754C43.2957 164.535 42.9339 165.509 42.6918 166.54C42.4522 167.575 42.3321 168.678 42.3258 169.797C42.3084 172.04 42.6906 174.342 43.3904 176.492C43.7395 177.568 44.1813 178.603 44.7126 179.542C44.9711 180.019 45.2702 180.448 45.5713 180.858C45.9005 181.265 46.1584 181.563 46.6296 181.975C49.9994 185.13 54.2991 187.512 58.7266 189.436C60.947 190.402 63.2284 191.258 65.5342 191.97C66.6841 192.308 67.8509 192.647 68.9756 192.875C70.0197 193.094 71.2981 193.25 72.4833 193.399C74.8754 193.683 77.2295 193.782 79.4604 193.52C81.695 193.264 83.7578 192.555 85.5143 191.376C86.3889 190.779 87.1866 190.063 87.918 189.252C88.6357 188.432 89.3001 187.527 89.8666 186.532C91.0335 184.559 91.8843 182.315 92.6831 180.003L92.6894 179.983C92.88 179.432 93.4834 179.139 94.0379 179.327C94.5002 179.485 94.7819 179.929 94.7524 180.391C94.587 182.965 94.0674 185.569 93.0043 188.071C92.483 189.323 91.8012 190.542 90.9492 191.667C90.111 192.8 89.091 193.836 87.928 194.697C85.6128 196.463 82.7733 197.404 80.0405 197.796C77.2868 198.198 74.582 198.07 71.9893 197.803C70.6824 197.658 69.4625 197.524 68.0493 197.227C66.7135 196.951 65.4683 196.584 64.2115 196.211C61.7241 195.435 59.3005 194.524 56.9269 193.477C52.2055 191.353 47.6069 188.769 43.6631 185.05C43.1898 184.638 42.6085 184.003 42.1661 183.427C41.727 182.831 41.3221 182.224 40.9861 181.602C40.2958 180.362 39.7677 179.084 39.3529 177.785C38.5273 175.186 38.1034 172.504 38.1135 169.758C38.1235 168.386 38.2657 166.993 38.5879 165.598C38.9164 164.207 39.4177 162.796 40.2759 161.488C40.683 160.827 41.2215 160.22 41.797 159.654C42.113 159.395 42.4042 159.107 42.7548 158.887L43.2661 158.543L43.742 158.276C45.0089 157.568 46.4142 157.038 47.8479 156.74C49.2843 156.434 50.7296 156.368 52.1118 156.425C53.4976 156.483 54.8287 156.661 56.1193 156.878C58.6988 157.319 61.1339 157.9 63.5533 158.359C65.9695 158.827 68.3663 159.191 70.7709 159.377C73.1745 159.569 75.5814 159.568 77.9808 159.406L77.9981 159.405C79.1581 159.326 80.1632 160.197 80.2422 161.349C80.3212 162.501 79.4461 163.499 78.2852 163.578Z" fill="#371B45"/>
<path d="M94.5269 167.94C94.5269 167.94 96.1881 148.418 85.0583 145.451C75.4659 142.894 72.8759 146.239 72.6769 148.329C72.3368 151.899 80.0531 154.147 80.1721 155.331C80.2916 156.514 74.3329 163.258 79.8152 167.458" fill="white"/>
<path d="M92.4286 167.764C92.456 167.199 92.4633 166.523 92.4576 165.896C92.4539 165.257 92.427 164.616 92.3975 163.977C92.336 162.699 92.2212 161.425 92.0433 160.172C91.7026 157.669 91.0971 155.22 90.1166 153.079C89.1404 150.936 87.7178 149.192 85.9096 148.279C85.6754 148.18 85.4431 148.076 85.2125 147.968L84.4765 147.73C83.8815 147.586 83.2571 147.422 82.6526 147.298C81.4358 147.055 80.2295 146.897 79.0817 146.869C77.9586 146.86 76.8587 146.989 76.1258 147.343C75.365 147.667 75.0374 148.164 74.9764 148.52C74.9754 148.579 74.9559 148.559 74.9748 148.617C74.9938 148.669 75.0159 148.759 75.1049 148.889C75.2702 149.148 75.6035 149.497 76.0132 149.832C76.8488 150.518 77.9381 151.153 79.1081 151.823L80.028 152.361C80.3545 152.563 80.6825 152.759 81.1116 153.096C81.2063 153.165 81.3554 153.304 81.4706 153.411C81.5391 153.478 81.6275 153.577 81.7012 153.662C81.7412 153.711 81.7718 153.745 81.8181 153.806C81.8702 153.88 81.9213 153.957 81.9687 154.035C82.0165 154.114 82.0609 154.194 82.1024 154.275C82.146 154.36 82.2103 154.533 82.2477 154.665C82.2893 154.809 82.3198 154.956 82.3382 155.099C82.3482 155.218 82.3492 155.326 82.3467 155.441C82.3434 155.554 82.3335 155.667 82.3187 155.778L82.2809 155.963C82.2561 156.071 82.2177 156.22 82.1923 156.29C82.0828 156.611 81.9797 156.828 81.8885 157.015L81.6226 157.534C80.9497 158.765 80.3821 159.803 79.9993 160.876C79.6165 161.936 79.3959 162.903 79.4269 163.787C79.4432 164.671 79.7755 165.581 80.4589 166.63L80.5025 166.696C80.8295 167.198 80.6847 167.869 80.1792 168.193C79.869 168.392 79.49 168.413 79.1719 168.285C78.4364 167.984 77.7486 167.502 77.1463 166.87C76.5503 166.234 76.0838 165.421 75.8168 164.553C75.2787 162.793 75.5224 161.008 76.0063 159.539C76.4881 158.06 77.1963 156.717 77.7807 155.571L77.965 155.187C78.0192 155.072 78.0482 154.983 78.0482 154.983C78.0518 154.974 78.0271 155.039 78.0244 155.066L78.015 155.129C78.0023 155.198 77.9945 155.269 77.9928 155.34C77.9918 155.413 77.9965 155.479 78.006 155.556C78.0133 155.66 78.0318 155.766 78.0617 155.868C78.0855 155.962 78.1449 156.091 78.1676 156.14C78.1866 156.186 78.2087 156.23 78.2345 156.273C78.2604 156.315 78.2888 156.357 78.3193 156.395L78.353 156.443C78.3694 156.467 78.4051 156.5 78.413 156.508C78.3999 156.507 78.4315 156.523 78.3877 156.495C78.284 156.417 78.0339 156.261 77.7812 156.118L76.9398 155.655C75.7535 155.01 74.4656 154.335 73.1788 153.347C72.5369 152.843 71.8778 152.254 71.289 151.394C70.9968 150.968 70.733 150.442 70.5576 149.851C70.3738 149.266 70.3339 148.56 70.4087 147.955C70.5566 146.79 71.0637 145.759 71.7561 144.945C72.449 144.14 73.3036 143.522 74.1555 143.15C74.3703 143.037 74.583 142.955 74.7962 142.883L75.4381 142.66C75.8568 142.558 76.2838 142.447 76.6982 142.376C77.1062 142.326 77.5227 142.259 77.9255 142.231L79.1196 142.186C80.6791 142.214 82.1618 142.417 83.5982 142.7C84.3185 142.846 85.004 143.023 85.7228 143.197L86.9165 143.583L88.0712 144.096C89.5823 144.854 90.8929 145.958 91.928 147.192C92.9689 148.43 93.7593 149.789 94.3801 151.169C95.6164 153.941 96.1981 156.799 96.5325 159.618C96.6868 161.031 96.7663 162.44 96.7883 163.847C96.7984 164.55 96.7873 165.253 96.761 165.958C96.7336 166.673 96.6988 167.341 96.6257 168.116C96.5161 169.265 95.4883 170.109 94.3305 170C93.2069 169.895 92.3734 168.931 92.425 167.824L92.4286 167.764Z" fill="#371B45"/>
<path d="M66.9522 162.807C66.7947 162.863 66.5536 163.022 66.3056 163.259C66.056 163.502 65.8054 163.835 65.568 164.193C65.0926 164.923 64.6913 165.809 64.3453 166.723C63.6562 168.569 63.186 170.576 62.8663 172.606C62.5451 174.639 62.3745 176.711 62.3703 178.775C62.3682 180.837 62.5188 182.911 62.9896 184.865L62.9927 184.88C63.128 185.442 62.7795 186.006 62.2134 186.141C61.6763 186.268 61.1366 185.959 60.9671 185.448C60.2563 183.288 59.9209 181.083 59.7398 178.88C59.5629 176.675 59.5629 174.465 59.7272 172.252C59.8941 170.038 60.2132 167.824 60.8387 165.597C61.1605 164.484 61.5448 163.366 62.1424 162.242C62.4488 161.681 62.7926 161.116 63.2612 160.562C63.7372 160.013 64.3185 159.46 65.1288 159.037L65.2616 158.968C66.2962 158.429 67.5751 158.824 68.118 159.851C68.6609 160.878 68.2629 162.148 67.2282 162.687C67.1411 162.732 67.0417 162.775 66.9522 162.807Z" fill="#371B45"/>
<path d="M46.6603 164.458C48.0261 164.323 49.3556 164.264 50.713 164.252C52.0656 164.248 53.4256 164.294 54.7962 164.44C56.1668 164.586 57.55 164.817 58.9448 165.271C59.6409 165.501 60.3416 165.787 61.0314 166.187C61.7163 166.586 62.4024 167.11 62.9643 167.838L63.0206 167.911C63.554 168.601 63.4229 169.589 62.7279 170.119C62.0329 170.648 61.0382 170.517 60.5049 169.827C60.4638 169.774 60.4223 169.711 60.3885 169.654C59.982 168.952 59.0291 168.303 57.9612 167.835C56.8834 167.359 55.6708 167.02 54.4334 166.764C53.1929 166.505 51.915 166.334 50.6287 166.211C49.3466 166.093 48.0313 166.024 46.7582 166.023L46.7371 166.023C46.3001 166.022 45.9473 165.671 45.9473 165.238C45.9478 164.832 46.2622 164.498 46.6603 164.458Z" fill="#371B45"/>
<path d="M45.897 172.712C47.2639 172.604 48.5698 172.608 49.9097 172.674C51.2424 172.744 52.5771 172.896 53.9093 173.137C55.2404 173.39 56.5646 173.754 57.8704 174.24C59.1705 174.748 60.4342 175.419 61.6241 176.265C62.3349 176.771 62.4975 177.753 61.9884 178.458C61.4792 179.163 60.4909 179.325 59.78 178.82C59.7384 178.79 59.699 178.758 59.661 178.726L59.6199 178.691C58.7722 177.952 57.8098 177.294 56.7487 176.748C55.6772 176.223 54.5405 175.777 53.3573 175.425C52.171 175.084 50.9494 174.816 49.7094 174.624C48.4768 174.435 47.1947 174.306 45.9758 174.279L45.942 174.278C45.506 174.268 45.1606 173.909 45.1701 173.476C45.1794 173.071 45.5 172.745 45.897 172.712Z" fill="#371B45"/>
<path d="M208.24 138.109C237.671 148.143 248.047 177.652 252.39 177.741C256.733 177.83 259.531 170.445 263.307 165.565C270.104 156.781 279.168 164.746 296.864 160.397C305.596 158.252 296.6 184.29 292.741 194.15C287.718 206.986 276.755 222.747 256.378 222.324C226.689 221.708 225.792 185.463 225.792 185.463" fill="white"/>
<g opacity="0.25">
<path d="M222.814 177.428L225.789 185.463C225.789 185.463 226.69 221.709 256.376 222.326C276.752 222.749 287.72 206.987 292.744 194.152C296.603 184.293 305.596 158.252 296.866 160.401C296.671 160.448 296.476 160.495 296.287 160.536C295.139 168.509 291.063 180.001 288.778 185.834C286.962 190.483 265.58 179.441 265.437 185.155C265.284 191.564 277.674 201.284 273.104 207.578C269.144 213.041 260.841 214.175 252.416 214.009C228.169 213.533 236.821 182.237 222.814 177.428Z" fill="#371B45"/>
</g>
<path d="M257.183 224.424C256.9 224.424 256.618 224.421 256.333 224.415C243.305 224.145 233.513 217.253 228.015 204.485C223.967 195.085 223.696 185.901 223.686 185.514C223.657 184.36 224.577 183.401 225.74 183.372C225.757 183.372 225.775 183.372 225.793 183.372C226.932 183.372 227.869 184.274 227.897 185.412C227.899 185.497 228.172 194.275 231.932 202.944C236.807 214.181 245.046 219.998 256.421 220.234C256.674 220.239 256.927 220.241 257.177 220.241C277.25 220.241 286.832 203.475 290.777 193.393C291.702 191.028 294.876 182.706 296.858 174.887C299.605 164.054 297.963 162.399 297.931 162.371L297.931 162.371C297.924 162.371 297.766 162.329 297.369 162.428C289.273 164.417 282.94 163.936 277.851 163.549C271.088 163.037 267.97 162.972 264.977 166.839C263.945 168.173 262.952 169.767 261.992 171.308C259.355 175.541 256.623 179.928 252.346 179.832C249.941 179.783 248.177 177.207 244.663 172.074C238.203 162.64 227.391 146.85 207.556 140.087C206.455 139.712 205.87 138.523 206.248 137.43C206.625 136.338 207.825 135.756 208.923 136.132C230.086 143.347 241.835 160.505 248.146 169.723C249.853 172.215 251.776 175.024 252.645 175.64C254.474 175.427 256.561 172.077 258.41 169.109C259.425 167.478 260.474 165.793 261.637 164.291C266.145 158.465 271.717 158.889 278.173 159.379C282.96 159.742 288.919 160.195 296.357 158.367C298.959 157.731 300.453 158.883 301.113 159.629C302.575 161.278 303.859 164.683 300.799 176.47C298.749 184.365 295.615 192.578 294.703 194.908C292.514 200.502 288.49 208.484 281.755 214.737C274.828 221.167 266.565 224.424 257.183 224.424Z" fill="#371B45"/>
<path d="M249.337 223.506C248.66 223.507 247.995 223.183 247.589 222.583C233.531 201.872 248.006 177.432 248.629 176.402C249.228 175.411 250.522 175.091 251.519 175.685C252.516 176.28 252.839 177.563 252.241 178.553C252.103 178.783 238.537 201.764 251.082 220.246C251.732 221.204 251.477 222.504 250.512 223.149C250.151 223.39 249.742 223.506 249.337 223.506Z" fill="#371B45"/>
<path d="M294.849 165.989C308.672 163.8 308.907 152.471 303 147.76C299.377 144.87 287.509 143.027 285.881 149.162C284.364 154.881 293.598 155.4 293.538 158.003C293.502 159.554 292.28 161.075 287.228 161.534" fill="white"/>
<path d="M293.538 158.001C293.501 159.554 292.279 161.075 287.23 161.535L294.849 165.989C296.681 165.697 298.277 165.247 299.651 164.672C301.615 160.62 300.235 155.821 296.886 153.15C294.759 151.451 289.789 150.117 285.719 150.546C285.908 154.984 293.59 155.628 293.538 158.001Z" fill="white"/>
<g opacity="0.25">
<path d="M293.538 158.001C293.501 159.554 292.279 161.075 287.23 161.535L294.849 165.989C296.681 165.697 298.277 165.247 299.651 164.672C301.615 160.62 300.235 155.821 296.886 153.15C295.491 152.035 292.613 152.649 290.124 151.339C287.553 149.986 285.974 145.866 285.719 150.546C285.908 154.984 293.59 155.628 293.538 158.001Z" fill="#371B45"/>
</g>
<path d="M294.846 168.08C293.829 168.08 292.934 167.347 292.768 166.318C292.585 165.178 293.368 164.105 294.517 163.924C299.902 163.071 303.385 160.665 304.324 157.151C305.068 154.363 304.006 151.244 301.68 149.389C299.74 147.841 293.842 146.424 290.239 147.603C288.304 148.236 288.013 149.333 287.918 149.694C287.496 151.284 288.447 152.068 291.518 153.615C293.477 154.602 295.697 155.72 295.643 158.05C295.569 161.254 292.803 163.127 287.42 163.616C286.261 163.721 285.237 162.874 285.13 161.724C285.024 160.574 285.878 159.556 287.036 159.451C289.493 159.228 290.864 158.722 291.288 158.256C290.865 157.976 290.137 157.609 289.612 157.345C287.121 156.09 282.484 153.754 283.844 148.628C284.479 146.237 286.234 144.509 288.921 143.63C293.82 142.029 301.221 143.657 304.319 146.128C307.922 149.002 309.56 153.863 308.395 158.222C307.023 163.358 302.206 166.941 295.18 168.054C295.067 168.072 294.956 168.08 294.846 168.08Z" fill="#371B45"/>
<path d="M279.675 161.494C296.119 162.677 304.878 155.164 313.446 160.33C320.015 164.293 317.917 178.325 313.088 183.12C305.85 190.308 292.557 194.634 288.064 195.281C279.216 196.555 267.341 197.285 264.09 180.198" fill="white"/>
<path d="M279.826 159.406C284.638 159.687 289.418 159.208 294.228 158.222C296.64 157.746 299.07 157.15 301.655 156.689C302.949 156.463 304.287 156.274 305.686 156.208C307.082 156.147 308.547 156.214 310.005 156.523C311.461 156.825 312.89 157.362 314.176 158.081L314.659 158.351L315.184 158.703C315.543 158.929 315.842 159.223 316.166 159.489C316.757 160.068 317.309 160.691 317.724 161.365C318.603 162.701 319.111 164.136 319.446 165.546C319.774 166.962 319.92 168.371 319.93 169.757C319.945 172.532 319.508 175.234 318.671 177.855C318.25 179.165 317.714 180.454 317.013 181.709C316.672 182.338 316.259 182.953 315.813 183.557C315.365 184.142 314.763 184.789 314.286 185.197C310.289 188.918 305.651 191.453 300.908 193.539C298.526 194.573 296.097 195.475 293.6 196.228C292.341 196.592 291.092 196.948 289.755 197.214C288.34 197.499 287.121 197.625 285.814 197.773C283.222 198.04 280.522 198.154 277.77 197.771C275.037 197.394 272.203 196.455 269.868 194.712C268.703 193.851 267.684 192.813 266.841 191.681C265.984 190.558 265.3 189.338 264.778 188.084C263.715 185.579 263.199 182.969 263.054 180.392C263.023 179.81 263.471 179.313 264.056 179.28C264.539 179.254 264.963 179.551 265.117 179.982L265.125 180.004C265.944 182.312 266.8 184.551 267.965 186.52C268.531 187.514 269.194 188.418 269.907 189.239C270.633 190.052 271.431 190.765 272.303 191.362C274.041 192.564 276.109 193.276 278.343 193.548C280.576 193.828 282.935 193.715 285.327 193.431C286.514 193.284 287.792 193.121 288.834 192.889C289.958 192.651 291.122 192.302 292.268 191.954C294.565 191.219 296.841 190.355 299.054 189.376C303.459 187.413 307.719 184.982 311.036 181.829C311.504 181.414 311.741 181.128 312.064 180.729C312.358 180.328 312.649 179.907 312.903 179.437C313.423 178.513 313.858 177.488 314.2 176.424C314.888 174.296 315.257 172.014 315.245 169.801C315.227 167.607 314.795 165.409 313.797 163.879C313.562 163.483 313.264 163.175 312.972 162.871C312.805 162.75 312.667 162.586 312.488 162.486L312.235 162.311L311.897 162.124C310.995 161.62 310.05 161.264 309.049 161.052C307.052 160.626 304.788 160.814 302.426 161.191C300.062 161.576 297.603 162.141 295.083 162.603C292.565 163.074 289.981 163.451 287.372 163.635C284.763 163.821 282.13 163.785 279.522 163.578C278.362 163.487 277.497 162.479 277.59 161.328C277.681 160.192 278.67 159.341 279.81 159.406L279.826 159.406Z" fill="#371B45"/>
<path d="M279.675 161.494C296.119 162.677 304.878 155.164 313.446 160.33C320.015 164.293 317.917 178.325 313.088 183.12C305.85 190.308 292.557 194.634 288.064 195.281C279.216 196.555 267.341 197.285 264.09 180.198" fill="white"/>
<g opacity="0.25">
<path d="M264.342 181.4C267.912 197.246 279.427 196.519 288.062 195.28C292.559 194.632 305.848 190.303 313.088 183.12C316.305 179.921 318.316 172.611 317.348 166.924C316.753 171.085 315.105 175.079 312.92 177.254C305.406 184.715 291.616 189.2 286.951 189.875C279.243 190.983 269.317 191.699 264.342 181.4Z" fill="#371B45"/>
</g>
<path d="M279.827 159.406C282.226 159.569 284.633 159.569 287.036 159.377C289.441 159.191 291.838 158.828 294.254 158.359C296.674 157.9 299.109 157.319 301.688 156.878C302.979 156.66 304.31 156.482 305.696 156.425C307.078 156.368 308.523 156.434 309.96 156.74C311.393 157.038 312.799 157.568 314.066 158.277L314.542 158.543L315.053 158.888C315.403 159.107 315.695 159.395 316.011 159.654C316.586 160.22 317.125 160.828 317.531 161.488C318.39 162.796 318.891 164.207 319.219 165.598C319.542 166.994 319.684 168.386 319.694 169.759C319.704 172.505 319.281 175.187 318.455 177.785C318.04 179.085 317.512 180.362 316.821 181.602C316.486 182.224 316.081 182.832 315.641 183.427C315.2 184.004 314.618 184.638 314.145 185.05C310.201 188.769 305.602 191.353 300.881 193.477C298.508 194.525 296.084 195.435 293.596 196.211C292.339 196.584 291.094 196.95 289.759 197.227C288.345 197.524 287.125 197.658 285.818 197.803C283.226 198.07 280.521 198.198 277.767 197.797C275.034 197.405 272.195 196.463 269.879 194.697C268.716 193.835 267.697 192.801 266.859 191.666C266.007 190.542 265.325 189.323 264.803 188.071C263.74 185.569 263.221 182.965 263.055 180.391C263.018 179.81 263.462 179.31 264.046 179.272C264.534 179.242 264.966 179.544 265.118 179.981L265.125 180.003C265.924 182.315 266.774 184.559 267.941 186.532C268.508 187.527 269.172 188.432 269.89 189.253C270.621 190.063 271.419 190.779 272.293 191.376C274.05 192.555 276.113 193.265 278.347 193.521C280.579 193.783 282.932 193.683 285.324 193.399C286.509 193.25 287.789 193.094 288.832 192.875C289.957 192.647 291.124 192.309 292.274 191.97C294.579 191.258 296.861 190.402 299.081 189.435C303.509 187.512 307.809 185.13 311.178 181.975C311.649 181.564 311.907 181.265 312.236 180.858C312.538 180.448 312.836 180.019 313.095 179.542C313.626 178.604 314.068 177.567 314.417 176.493C315.117 174.341 315.499 172.039 315.482 169.798C315.476 168.677 315.356 167.575 315.116 166.54C314.874 165.509 314.512 164.536 313.991 163.754C313.747 163.345 313.436 163.022 313.129 162.704C312.954 162.576 312.808 162.407 312.62 162.301L312.353 162.118L312.008 161.926C311.088 161.413 310.119 161.049 309.096 160.833C307.052 160.396 304.762 160.602 302.395 161.001C300.023 161.405 297.571 161.986 295.057 162.465C292.545 162.952 289.969 163.346 287.365 163.546C284.762 163.754 282.133 163.755 279.523 163.577C278.362 163.498 277.486 162.5 277.566 161.348C277.644 160.196 278.651 159.326 279.811 159.405L279.827 159.406Z" fill="#371B45"/>
<path d="M263.281 167.94C263.281 167.94 261.619 148.418 272.749 145.451C282.342 142.894 284.932 146.239 285.131 148.329C285.471 151.899 277.754 154.147 277.635 155.331C277.516 156.514 283.475 163.258 277.992 167.458" fill="white"/>
<path d="M261.182 168.116C261.109 167.341 261.074 166.673 261.046 165.958C261.02 165.253 261.01 164.551 261.019 163.847C261.042 162.44 261.121 161.031 261.275 159.618C261.61 156.799 262.192 153.941 263.428 151.169C264.048 149.789 264.839 148.43 265.881 147.193C266.915 145.958 268.226 144.854 269.737 144.096L270.891 143.583L272.085 143.197C272.803 143.023 273.489 142.846 274.209 142.699C275.646 142.417 277.129 142.214 278.688 142.186L279.883 142.231C280.285 142.259 280.702 142.326 281.11 142.377C281.525 142.447 281.951 142.558 282.369 142.66L283.012 142.883C283.225 142.955 283.438 143.037 283.653 143.15C284.505 143.522 285.36 144.14 286.052 144.945C286.744 145.759 287.252 146.79 287.399 147.955C287.474 148.56 287.434 149.266 287.251 149.851C287.075 150.442 286.811 150.968 286.519 151.394C285.93 152.254 285.271 152.843 284.629 153.347C283.343 154.335 282.055 155.011 280.868 155.655L280.027 156.118C279.774 156.261 279.525 156.417 279.42 156.495C279.377 156.523 279.408 156.507 279.395 156.508C279.403 156.5 279.439 156.467 279.455 156.443L279.489 156.395C279.52 156.357 279.548 156.315 279.574 156.273C279.599 156.23 279.622 156.186 279.641 156.14C279.663 156.091 279.723 155.962 279.746 155.868C279.776 155.766 279.795 155.66 279.802 155.556C279.812 155.479 279.817 155.413 279.815 155.34C279.814 155.269 279.806 155.198 279.793 155.129L279.784 155.066C279.781 155.039 279.756 154.974 279.76 154.983C279.76 154.983 279.789 155.072 279.843 155.188L280.028 155.571C280.612 156.717 281.32 158.061 281.802 159.539C282.286 161.008 282.53 162.793 281.992 164.554C281.725 165.421 281.258 166.234 280.662 166.87C280.06 167.502 279.372 167.984 278.637 168.285C278.08 168.513 277.443 168.25 277.213 167.696C277.073 167.358 277.119 166.989 277.302 166.702L277.35 166.629C278.033 165.581 278.365 164.671 278.382 163.787C278.413 162.902 278.192 161.936 277.809 160.876C277.427 159.804 276.859 158.764 276.186 157.534L275.92 157.016C275.829 156.828 275.726 156.611 275.616 156.29C275.591 156.22 275.553 156.071 275.528 155.963L275.49 155.778C275.475 155.667 275.465 155.554 275.462 155.441C275.459 155.326 275.46 155.217 275.471 155.1C275.489 154.956 275.52 154.809 275.561 154.665C275.598 154.533 275.663 154.36 275.707 154.275C275.748 154.194 275.792 154.114 275.84 154.035C275.888 153.957 275.938 153.881 275.991 153.806C276.037 153.745 276.068 153.711 276.108 153.663C276.181 153.577 276.269 153.478 276.338 153.411C276.454 153.303 276.603 153.165 276.697 153.096C277.126 152.759 277.454 152.563 277.781 152.36L278.701 151.822C279.871 151.153 280.96 150.517 281.795 149.832C282.205 149.496 282.539 149.148 282.704 148.89C282.793 148.76 282.816 148.669 282.835 148.617C282.852 148.559 282.834 148.579 282.832 148.52C282.771 148.163 282.444 147.667 281.683 147.343C280.951 146.989 279.85 146.86 278.727 146.869C277.579 146.897 276.373 147.055 275.157 147.298C274.552 147.422 273.927 147.586 273.332 147.729L272.597 147.968C272.366 148.075 272.133 148.179 271.899 148.279C270.091 149.192 268.668 150.936 267.692 153.079C266.712 155.22 266.106 157.669 265.765 160.172C265.587 161.425 265.472 162.698 265.411 163.977C265.382 164.616 265.355 165.257 265.351 165.896C265.345 166.523 265.353 167.198 265.38 167.763L265.383 167.819C265.438 168.972 264.541 169.952 263.38 170.007C262.252 170.061 261.289 169.219 261.182 168.116Z" fill="#371B45"/>
<path d="M292.679 159.035C293.489 159.458 294.071 160.011 294.547 160.56C295.015 161.115 295.359 161.679 295.665 162.241C296.264 163.365 296.647 164.482 296.969 165.596C297.595 167.822 297.914 170.037 298.081 172.25C298.245 174.463 298.245 176.674 298.068 178.879C297.887 181.082 297.552 183.286 296.841 185.447C296.661 185.995 296.066 186.296 295.513 186.116C294.988 185.947 294.689 185.406 294.814 184.882L294.818 184.864C295.289 182.91 295.44 180.835 295.438 178.774C295.433 176.709 295.263 174.637 294.942 172.604C294.622 170.575 294.152 168.567 293.462 166.722C293.117 165.807 292.715 164.922 292.24 164.191C292.003 163.833 291.752 163.5 291.502 163.258C291.254 163.02 291.014 162.861 290.856 162.805C289.755 162.418 289.179 161.217 289.569 160.123C289.96 159.03 291.169 158.458 292.27 158.846C292.363 158.879 292.451 158.917 292.536 158.96L292.679 159.035Z" fill="#371B45"/>
<path d="M311.051 166.023C309.778 166.024 308.463 166.093 307.18 166.211C305.894 166.334 304.616 166.506 303.376 166.764C302.138 167.02 300.926 167.359 299.848 167.835C298.78 168.303 297.828 168.952 297.421 169.654C296.984 170.408 296.015 170.667 295.256 170.234C294.497 169.801 294.236 168.838 294.672 168.084C294.706 168.026 294.743 167.971 294.783 167.919L294.845 167.838C295.407 167.11 296.094 166.586 296.779 166.187C297.468 165.787 298.168 165.501 298.865 165.271C300.26 164.817 301.643 164.586 303.014 164.44C304.385 164.293 305.744 164.248 307.096 164.252C308.454 164.264 309.784 164.323 311.15 164.458C311.584 164.5 311.901 164.884 311.858 165.315C311.818 165.719 311.477 166.021 311.077 166.023L311.051 166.023Z" fill="#371B45"/>
<path d="M311.832 174.279C310.614 174.306 309.331 174.435 308.098 174.624C306.859 174.816 305.637 175.084 304.45 175.424C303.267 175.776 302.131 176.223 301.059 176.748C299.998 177.293 299.036 177.952 298.188 178.69L298.149 178.724C297.492 179.296 296.492 179.231 295.916 178.578C295.34 177.926 295.406 176.933 296.063 176.361C296.102 176.327 296.143 176.294 296.184 176.265C297.374 175.419 298.637 174.747 299.938 174.24C301.244 173.754 302.568 173.39 303.899 173.136C305.232 172.895 306.566 172.744 307.898 172.674C309.238 172.608 310.545 172.604 311.911 172.712C312.346 172.746 312.67 173.124 312.635 173.556C312.603 173.96 312.268 174.268 311.87 174.278L311.832 174.279Z" fill="#371B45"/>
<path d="M238.662 264.453L118.747 264.453C118.747 264.453 118.616 251.149 120.977 231.392C121.398 227.847 121.901 224.089 122.506 220.162C125.151 202.849 129.649 182.255 137.31 161.789C138.462 158.709 139.689 155.635 140.985 152.573C142.019 150.142 143.096 147.724 144.231 145.319C145.054 143.557 145.908 141.805 146.789 140.061L210.625 140.061C211.505 141.805 212.359 143.557 213.183 145.319C214.331 147.75 215.421 150.203 216.464 152.66C217.948 156.165 219.337 159.688 220.634 163.211C227.97 183.208 232.324 203.248 234.904 220.157C235.509 224.098 236.012 227.869 236.437 231.426C238.794 251.166 238.662 264.453 238.662 264.453Z" fill="white"/>
<g opacity="0.25">
<path d="M238.662 264.453L118.747 264.453C118.747 264.453 118.616 251.149 120.977 231.392C121.398 227.847 121.901 224.089 122.506 220.162C123.645 212.708 125.129 204.64 127.061 196.242C133.324 217.97 153.504 234.514 178.221 234.514L179.294 234.514C203.945 234.514 224.067 218.058 230.392 196.412C232.307 204.749 233.774 212.756 234.904 220.158C235.509 224.098 236.012 227.869 236.437 231.426C238.794 251.167 238.662 264.453 238.662 264.453Z" fill="#371B45"/>
</g>
<path d="M227.319 180.299C230.08 186.911 232.041 193.8 233.53 200.773C234.35 204.245 235.001 207.751 235.707 211.247C236.046 212.998 236.319 214.759 236.628 216.515L237.079 219.151L237.477 221.796C238.565 228.843 239.382 235.931 239.95 243.04C240.252 246.593 240.443 250.155 240.603 253.719C240.737 257.296 240.841 260.834 240.769 264.47L240.769 264.471L240.769 266.542L238.663 266.542L177.686 266.542L177.686 262.36L179.727 262.36L179.727 266.542L118.75 266.542L116.644 266.542L116.644 264.471L116.644 264.47C116.573 260.817 116.678 257.262 116.814 253.668C116.974 250.087 117.17 246.507 117.474 242.937C118.047 235.795 118.871 228.673 119.973 221.593L120.374 218.937L120.828 216.289C121.14 214.524 121.416 212.754 121.761 210.996C122.473 207.484 123.13 203.962 123.957 200.473C125.467 193.471 127.474 186.56 130.208 179.906C130.429 179.369 131.047 179.111 131.589 179.33C132.051 179.518 132.308 179.992 132.236 180.462L132.232 180.485C131.146 187.549 129.503 194.411 128.137 201.355C126.705 208.28 125.551 215.26 124.542 222.258C124.305 224.009 124.041 225.757 123.824 227.512L123.173 232.774C122.792 236.289 122.413 239.803 122.103 243.324C121.795 246.844 121.524 250.367 121.296 253.893C121.099 257.407 120.929 260.966 120.856 264.43L120.856 264.43L118.75 262.36L179.727 262.36L179.727 266.542L177.686 266.542L177.686 262.36L238.663 262.36L236.557 264.43L236.557 264.43C236.483 260.983 236.316 257.441 236.12 253.942C235.894 250.435 235.622 246.929 235.316 243.425C235.011 239.921 234.632 236.423 234.254 232.925L233.608 227.688C233.389 225.943 233.131 224.202 232.895 222.459C231.895 215.494 230.746 208.548 229.331 201.654C227.97 194.743 226.317 187.921 225.294 180.876L225.29 180.853C225.207 180.277 225.61 179.744 226.189 179.661C226.678 179.591 227.138 179.866 227.319 180.299Z" fill="#371B45"/>
<g opacity="0.35">
<path d="M178.377 220.498C178.879 221.262 179.367 222.012 179.836 222.748C179.362 222.012 178.874 221.257 178.377 220.498Z" fill="#371B45"/>
</g>
<path d="M150.074 220.919C142.645 223.906 131.147 223.281 123.308 222.339C118.606 221.774 115.306 217.466 115.998 212.814C116.63 208.569 120.393 205.483 124.71 205.683C132.042 206.025 143.041 206.184 150.006 204.65" fill="white"/>
<g opacity="0.35">
<path d="M150.077 220.917C142.645 223.908 131.146 223.278 123.308 222.342C118.607 221.776 115.307 217.465 116 212.816C116.138 211.867 116.439 210.976 116.865 210.164C118.102 212.511 120.447 214.24 123.308 214.585C131.133 215.527 142.612 216.152 150.044 213.181L150.077 220.917Z" fill="#371B45"/>
</g>
<path d="M135.3 225.206C130.996 225.206 126.718 224.853 123.055 224.413C120.216 224.072 117.697 222.641 115.962 220.383C114.223 218.121 113.496 215.324 113.914 212.507C114.709 207.173 119.386 203.35 124.809 203.592C135.598 204.095 144.384 203.745 149.55 202.607C150.624 202.367 153.294 202.356 154.85 207.325C156.412 212.314 156.225 220.7 150.865 222.855C146.489 224.614 140.873 225.206 135.3 225.206ZM124.31 207.764C121.193 207.764 118.543 210.018 118.081 213.118C117.83 214.809 118.266 216.488 119.31 217.846C120.35 219.199 121.86 220.057 123.561 220.261C134.748 221.605 143.883 221.15 149.284 218.978L149.284 218.978C150.771 218.381 151.24 215.983 151.372 214.979C151.864 211.26 150.754 207.723 150.022 206.784C142.942 208.243 132.338 208.129 124.612 207.771C124.511 207.766 124.41 207.764 124.31 207.764Z" fill="#371B45"/>
<path d="M233.672 222.338C229.995 222.781 225.505 223.153 221.011 223.111C220.702 223.111 220.397 223.106 220.087 223.097C219.764 223.092 219.436 223.083 219.112 223.069C218.891 223.064 218.676 223.055 218.464 223.046C218.207 223.032 217.953 223.018 217.7 223.004C217.376 222.985 217.053 222.961 216.733 222.938L216.71 222.938C216.391 222.915 216.067 222.888 215.748 222.855C215.538 222.836 215.326 222.813 215.12 222.789C214.942 222.776 214.763 222.752 214.59 222.733C214.313 222.701 214.037 222.664 213.769 222.627C213.511 222.589 213.258 222.552 213.009 222.51C212.957 222.505 212.906 222.501 212.859 222.487C212.563 222.445 212.272 222.394 211.986 222.338C211.696 222.287 211.41 222.231 211.128 222.17C211.105 222.166 211.081 222.161 211.058 222.156C210.898 222.119 210.738 222.087 210.583 222.049C210.41 222.012 210.237 221.97 210.063 221.923L210.058 221.923C209.528 221.793 209.008 221.644 208.501 221.486C208.229 221.402 207.957 221.308 207.69 221.216C207.422 221.122 207.16 221.02 206.906 220.917L206.939 213.107L206.977 204.648C208.76 205.045 210.809 205.324 212.99 205.519C219.332 206.092 226.814 205.934 232.269 205.683C232.401 205.678 232.532 205.673 232.668 205.673C236.815 205.673 240.37 208.701 240.98 212.813C241.674 217.466 238.372 221.774 233.672 222.338Z" fill="white"/>
<g opacity="0.25">
<path d="M233.672 222.338C229.995 222.78 225.505 223.153 221.012 223.111C220.702 223.111 220.397 223.106 220.088 223.097C219.764 223.092 219.436 223.083 219.112 223.068C218.891 223.064 218.676 223.055 218.464 223.045C218.207 223.031 217.953 223.018 217.7 223.004C217.376 222.985 217.053 222.961 216.734 222.938L216.71 222.938C216.391 222.915 216.067 222.887 215.748 222.855C215.538 222.836 215.326 222.812 215.12 222.789C214.942 222.776 214.764 222.752 214.59 222.733C214.313 222.7 214.036 222.663 213.769 222.627C213.511 222.589 213.258 222.552 213.009 222.51C212.957 222.505 212.906 222.501 212.859 222.487C212.563 222.445 212.272 222.393 211.986 222.338C211.696 222.286 211.41 222.231 211.129 222.17C211.105 222.165 211.081 222.16 211.058 222.156C210.898 222.119 210.738 222.086 210.584 222.049C210.41 222.011 210.237 221.97 210.063 221.923L210.059 221.923C209.528 221.793 209.008 221.644 208.501 221.486C208.229 221.401 207.957 221.308 207.69 221.215C207.422 221.122 207.16 221.02 206.906 220.917L206.939 213.107L206.944 212.543C207.183 212.641 207.436 212.739 207.69 212.828C207.957 212.92 208.229 213.013 208.501 213.097C209.008 213.256 209.528 213.405 210.059 213.535L210.063 213.535C210.237 213.581 210.41 213.623 210.584 213.66C210.738 213.698 210.898 213.73 211.058 213.767L211.129 213.782C211.41 213.842 211.696 213.898 211.986 213.949C212.272 214.005 212.563 214.056 212.859 214.098C212.906 214.112 212.957 214.117 213.009 214.122C213.258 214.164 213.511 214.201 213.769 214.238C214.036 214.276 214.313 214.313 214.59 214.345C214.764 214.364 214.942 214.388 215.12 214.401C215.326 214.425 215.538 214.448 215.748 214.466C216.068 214.499 216.391 214.527 216.71 214.55L216.734 214.55C217.053 214.573 217.376 214.597 217.7 214.615C217.953 214.63 218.207 214.643 218.464 214.658C218.676 214.667 218.891 214.676 219.112 214.681C219.436 214.695 219.764 214.704 220.088 214.708C220.397 214.718 220.702 214.723 221.012 214.723C225.505 214.765 229.995 214.392 233.672 213.949C236.402 213.623 238.663 212.031 239.939 209.842C240.46 210.736 240.821 211.737 240.98 212.813C241.674 217.466 238.372 221.774 233.672 222.338Z" fill="#371B45"/>
</g>
<path d="M221.678 225.207C216.105 225.207 210.489 224.616 206.113 222.856C200.752 220.702 200.566 212.316 202.128 207.326C203.684 202.357 206.354 202.371 207.428 202.608C212.594 203.746 221.38 204.095 232.169 203.594C237.584 203.351 242.269 207.174 243.063 212.508C243.482 215.325 242.755 218.122 241.017 220.384C239.281 222.642 236.762 224.073 233.923 224.414C230.261 224.854 225.982 225.207 221.678 225.207ZM206.956 206.785C206.224 207.724 205.114 211.26 205.606 214.98C205.738 215.983 206.207 218.382 207.693 218.98L207.694 218.98C213.095 221.151 222.231 221.606 233.418 220.262C235.119 220.058 236.628 219.201 237.668 217.847C238.712 216.49 239.148 214.81 238.896 213.119C238.42 209.92 235.608 207.614 232.366 207.772C224.639 208.13 214.035 208.244 206.956 206.785Z" fill="#371B45"/>
<path d="M209.777 199.272L209.777 225.343C209.777 230.181 205.789 234.14 200.917 234.14L152.56 234.14C147.694 234.14 143.707 230.181 143.707 225.343L143.707 199.272C143.707 194.435 147.694 190.482 152.56 190.482L200.917 190.482C203.785 190.482 206.345 191.854 207.969 193.967C209.102 195.443 209.777 197.282 209.777 199.272Z" fill="white"/>
<g opacity="0.25">
<path d="M209.776 199.274L209.776 225.346C209.776 230.181 205.789 234.139 200.916 234.139L152.559 234.139C147.69 234.139 143.707 230.184 143.707 225.351L143.707 215.594C148.887 225.594 166.49 229.527 180.971 228.071C184.206 227.745 186.519 224.694 185.747 221.558C185.517 220.622 185.393 219.63 185.393 218.602C185.393 212.915 189.188 208.304 193.87 208.304C198.397 208.304 202.102 212.617 202.341 218.048C208.144 210.517 208.458 200.438 207.97 193.969C209.101 195.445 209.776 197.285 209.776 199.274Z" fill="#371B45"/>
</g>
<path d="M200.919 236.232L152.56 236.232C146.517 236.232 141.6 231.349 141.6 225.348L141.6 199.274C141.6 193.273 146.517 188.391 152.56 188.391L200.919 188.391C206.963 188.391 211.88 193.273 211.88 199.274L211.88 225.348C211.88 231.349 206.963 236.232 200.919 236.232ZM152.561 192.573C148.839 192.573 145.812 195.579 145.812 199.274L145.812 225.348C145.812 229.043 148.839 232.049 152.561 232.049L200.919 232.049C204.64 232.049 207.667 229.043 207.667 225.348L207.667 199.274C207.667 195.579 204.64 192.573 200.919 192.573L152.561 192.573Z" fill="#371B45"/>
<path d="M201.509 212.311C201.509 216.498 198.09 219.893 193.873 219.893C189.655 219.893 186.236 216.498 186.236 212.311C186.236 208.123 189.655 204.729 193.873 204.729C198.09 204.729 201.509 208.123 201.509 212.311Z" fill="#3BA1DA"/>
<path d="M201.51 212.312C201.51 212.724 201.478 213.127 201.411 213.52C200.829 209.905 197.675 207.145 193.872 207.145C190.069 207.145 186.915 209.905 186.334 213.52C186.266 213.127 186.234 212.724 186.234 212.312C186.234 208.125 189.654 204.729 193.872 204.729C198.09 204.729 201.51 208.124 201.51 212.312Z" fill="white"/>
<g opacity="0.35">
<path d="M201.506 212.31C201.506 216.497 198.088 219.891 193.871 219.891C189.654 219.891 186.236 216.497 186.236 212.31C186.236 211.341 186.42 210.418 186.76 209.566C187.86 212.395 190.63 214.397 193.871 214.397C197.112 214.397 199.882 212.395 200.982 209.566C201.322 210.418 201.506 211.341 201.506 212.31Z" fill="#371B45"/>
</g>
<path d="M193.872 221.461C188.79 221.461 184.656 217.356 184.656 212.311C184.656 207.265 188.79 203.16 193.872 203.16C198.954 203.16 203.088 207.265 203.088 212.311C203.088 217.356 198.954 221.461 193.872 221.461ZM193.872 206.297C190.533 206.297 187.815 208.995 187.815 212.311C187.815 215.627 190.533 218.324 193.872 218.324C197.212 218.324 199.929 215.627 199.929 212.311C199.929 208.995 197.212 206.297 193.872 206.297Z" fill="#371B45"/>
<path d="M172.231 235.708C171.359 235.708 170.652 235.006 170.652 234.139L170.652 221.557C170.652 218.285 169.08 215.155 166.446 213.187C163.024 210.629 160.98 206.563 160.98 202.31L160.98 190.481C160.98 189.614 161.688 188.912 162.56 188.912C163.432 188.912 164.14 189.614 164.14 190.481L164.14 202.31C164.14 205.583 165.712 208.712 168.346 210.68C171.768 213.239 173.811 217.305 173.811 221.557L173.811 234.139C173.811 235.006 173.104 235.708 172.231 235.708Z" fill="#371B45"/>
<path d="M254.158 109.928C253.303 109.932 252.606 109.248 252.601 108.399L252.35 64.1112C252.345 63.2616 253.034 62.5695 253.89 62.5647C262.862 62.5151 270.176 69.6956 270.226 78.6041L270.312 93.7066C270.362 102.615 263.13 109.877 254.158 109.928Z" fill="white"/>
<path d="M254.148 110.304C253.637 110.304 253.157 110.108 252.794 109.751C252.428 109.392 252.225 108.912 252.222 108.402L251.971 64.1139C251.966 63.0586 252.825 62.1954 253.887 62.1898C253.919 62.1898 253.95 62.1895 253.981 62.1895C263.105 62.1895 270.553 69.5329 270.604 78.6025L270.69 93.7053C270.741 102.806 263.325 110.251 254.159 110.304C254.156 110.304 254.152 110.304 254.148 110.304ZM253.981 62.9409C253.951 62.9409 253.922 62.9409 253.891 62.9411C253.246 62.9446 252.724 63.4687 252.727 64.1097L252.979 108.397C252.98 108.708 253.104 108.999 253.326 109.217C253.546 109.433 253.838 109.552 254.148 109.552C254.15 109.552 254.153 109.552 254.155 109.552C262.904 109.503 269.982 102.396 269.933 93.7096L269.848 78.6068C269.799 69.9504 262.689 62.9409 253.981 62.9409Z" fill="#371B45"/>
<g opacity="0.25">
<path d="M270.27 86.625L270.312 93.7078C270.362 102.614 263.129 109.877 254.155 109.931C253.301 109.937 252.604 109.247 252.598 108.398L252.527 96.6251C252.771 97.1603 253.314 97.5279 253.941 97.5295L254.999 97.5206C262.089 97.4829 268.097 92.9362 270.27 86.625Z" fill="#371B45"/>
</g>
<path d="M254.147 112.018C253.179 112.018 252.267 111.646 251.578 110.969C250.884 110.288 250.499 109.379 250.493 108.41L250.242 64.1221C250.233 62.1197 251.863 60.4836 253.877 60.4729C253.912 60.4727 253.946 60.4727 253.981 60.4727C264.052 60.4727 272.275 68.5793 272.331 78.5914L272.417 93.6942C272.473 103.741 264.286 111.96 254.168 112.018C254.162 112.018 254.154 112.018 254.147 112.018ZM254.145 107.835C254.145 107.835 254.145 107.835 254.145 107.835C254.145 107.835 254.145 107.835 254.145 107.835ZM254.458 64.6626L254.702 107.822C262.239 107.487 268.247 101.273 268.205 93.7175L268.119 78.6151C268.076 71.0601 261.998 64.9131 254.458 64.6626Z" fill="#371B45"/>
<path d="M106.662 63.3867C107.518 63.3821 108.215 64.0664 108.219 64.9154L108.471 109.203C108.475 110.053 107.786 110.744 106.931 110.75C97.9589 110.799 90.6444 103.619 90.5939 94.7102L90.5081 79.6077C90.458 70.6991 97.6904 63.4369 106.662 63.3867Z" fill="white"/>
<path d="M106.839 111.126C97.715 111.126 90.2667 103.783 90.215 94.7129L90.1292 79.6102C90.0781 70.5095 97.4945 63.0641 106.66 63.0117C107.165 63.0125 107.66 63.205 108.025 63.5645C108.391 63.9238 108.594 64.403 108.597 64.914L108.849 109.202C108.855 110.256 107.995 111.119 106.933 111.126C106.902 111.126 106.87 111.126 106.839 111.126ZM106.664 63.7631C97.9153 63.812 90.837 70.9192 90.8858 79.6059L90.9717 94.7086C91.0206 103.365 98.1307 110.375 106.839 110.375C106.869 110.375 106.898 110.375 106.928 110.374C107.574 110.371 108.095 109.847 108.092 109.206L107.84 64.9184C107.839 64.6081 107.715 64.3171 107.493 64.0987C107.271 63.8805 106.953 63.7472 106.664 63.7631Z" fill="#371B45"/>
<g opacity="0.25">
<path d="M108.404 96.9177L108.472 109.204C108.479 110.053 107.784 110.745 106.929 110.75C102.22 110.774 97.9632 108.81 94.9767 105.644C92.2804 102.785 90.6202 98.9431 90.5955 94.7137L90.5586 88.3496C93.1376 93.9185 98.8336 97.7767 105.412 97.7411L107.04 97.7317C107.634 97.727 108.137 97.3982 108.404 96.9177Z" fill="#371B45"/>
</g>
<path d="M106.839 112.84C96.7658 112.84 88.5433 104.733 88.4865 94.7214L88.4007 79.6187C88.3445 69.5723 96.5313 61.3527 106.649 61.2949C107.61 61.2987 108.545 61.6614 109.24 62.3432C109.934 63.0249 110.319 63.9342 110.324 64.9034L110.575 109.19C110.587 111.191 108.957 112.828 106.943 112.84C106.908 112.84 106.873 112.84 106.839 112.84ZM106.115 65.4911C98.5784 65.8255 92.5705 72.0399 92.6129 79.5951L92.6987 94.6975C92.7417 102.252 98.82 108.399 106.36 108.65L106.115 65.4911ZM106.673 65.4773C106.673 65.4773 106.673 65.4773 106.673 65.4773C106.673 65.4773 106.673 65.4773 106.673 65.4773Z" fill="#371B45"/>
<g opacity="0.25">
<path d="M234.475 147.061C219.955 165.185 198.321 175.95 174.819 174.244C154.368 172.762 136.431 162.117 124.047 146.162C128.119 143.083 133.188 141.254 138.665 141.254L218.744 141.254C224.735 141.254 230.234 143.446 234.475 147.061Z" fill="#371B45"/>
</g>
<path d="M256.267 91.5869C253.525 133.18 217.344 164.69 175.455 161.967C133.565 159.244 101.829 123.32 104.571 81.7275C107.314 40.1348 143.495 8.62482 185.384 11.3476C227.274 14.0698 259.009 49.9943 256.267 91.5869Z" fill="white"/>
<path d="M180.529 162.508C178.835 162.508 177.137 162.453 175.43 162.342C155.07 161.019 136.447 151.902 122.992 136.672C109.537 121.441 102.862 101.919 104.194 81.7035C105.527 61.4873 114.709 42.9966 130.049 29.6374C145.388 16.2782 165.047 9.6473 185.409 10.973C205.77 12.2963 224.393 21.4127 237.848 36.6436C251.302 51.8742 257.978 71.3957 256.645 91.6119C255.312 111.828 246.13 130.319 230.791 143.678C216.737 155.918 199.053 162.508 180.529 162.508ZM180.369 11.5605C140.896 11.5605 107.564 42.0927 104.95 81.7527C103.63 101.768 110.239 121.096 123.561 136.176C136.882 151.256 155.321 160.282 175.48 161.593C195.638 162.901 215.104 156.34 230.292 143.114C245.479 129.887 254.57 111.579 255.89 91.563C257.21 71.5471 250.6 52.2188 237.279 37.1391C223.957 22.0593 205.519 13.0331 185.36 11.723C183.689 11.6142 182.02 11.5605 180.369 11.5605Z" fill="#371B45"/>
<g opacity="0.25">
<path d="M256.228 81.1138C256.486 84.5507 256.501 88.0461 256.269 91.587C253.521 133.178 217.342 164.687 175.454 161.969C133.565 159.24 101.831 123.318 104.569 81.7266C104.647 80.5305 104.754 79.3353 104.89 78.1602C107.586 115.153 137.405 145.437 175.733 147.929C216.417 150.57 251.708 120.926 256.228 81.1138Z" fill="#371B45"/>
</g>
<path d="M180.531 164.224C178.798 164.224 177.062 164.168 175.317 164.055C154.496 162.701 135.452 153.378 121.693 137.803C107.934 122.228 101.107 102.265 102.47 81.5917C105.283 38.915 142.541 6.4689 185.522 9.2613C206.343 10.6145 225.387 19.9374 239.146 35.5124C252.905 51.0877 259.732 71.0507 258.369 91.7242C257.006 112.398 247.616 131.307 231.93 144.968C217.558 157.485 199.473 164.224 180.531 164.224ZM180.369 13.2763C141.798 13.2763 109.228 43.1108 106.673 81.8647C105.384 101.423 111.842 120.31 124.859 135.045C137.876 149.78 155.894 158.6 175.592 159.881C195.29 161.165 214.311 154.748 229.152 141.824C243.993 128.899 252.876 111.01 254.165 91.4511C255.455 71.8923 248.996 53.0056 235.979 38.2703C222.962 23.5351 204.945 14.7149 185.247 13.435C183.614 13.3287 181.983 13.2763 180.369 13.2763Z" fill="#371B45"/>
<path d="M255.896 93.5059C255.149 108.256 249.633 121.709 240.812 132.627C234.199 140.812 208.029 154.409 176.629 153.122C147.515 151.928 121.819 135.2 116.066 126.397C108.393 114.655 104.265 100.72 105.012 85.9698C106.989 46.9373 141.584 32.4433 183.251 34.5241C224.919 36.6053 257.874 54.4734 255.896 93.5059Z" fill="#371B45"/>
<g opacity="0.5">
<path d="M222.154 84.7763C220.464 91.9595 223.343 98.7679 228.585 99.9839C233.827 101.2 239.447 96.363 241.137 89.1798C242.827 81.9971 239.947 75.1888 234.706 73.9722C229.464 72.7567 223.844 77.5936 222.154 84.7763Z" fill="white"/>
</g>
<g opacity="0.5">
<path d="M213.439 110.912C212.212 114.071 213.43 117.48 216.16 118.525C218.89 119.571 222.098 117.858 223.325 114.699C224.552 111.54 223.334 108.132 220.604 107.086C217.874 106.041 214.666 107.754 213.439 110.912Z" fill="white"/>
</g>
<g opacity="0.35">
<path d="M243.068 56.3594C251.848 65.5581 256.687 77.827 255.896 93.5035C255.149 108.257 249.63 121.708 240.814 132.627C234.199 140.812 208.027 154.408 176.628 153.124C165.541 152.672 154.953 149.964 145.77 146.295C184.4 147.057 216.286 130.358 224.487 120.206C235.684 106.348 242.683 89.2719 243.628 70.5553C243.885 65.5534 243.679 60.8242 243.068 56.3594Z" fill="#121A27"/>
</g>
<path d="M251.136 61.0423C250.63 61.0423 250.123 60.8615 249.72 60.4947L249.517 60.3101L249.359 60.0712C237.503 41.6755 213.36 30.2585 183.12 28.7473C152.712 27.228 127.547 36.5141 114.073 54.2208L113.872 54.4489C113.05 55.2651 111.717 55.2653 110.894 54.4487C110.122 53.6816 110.075 52.4668 110.753 51.6452C125.091 32.8513 151.541 22.9817 183.332 24.5703C214.925 26.149 240.271 38.2512 252.88 57.7748C253.414 58.5592 253.362 59.6342 252.691 60.3615C252.274 60.8126 251.706 61.042 251.136 61.0423Z" fill="#371B45"/>
<g opacity="0.5">
<path d="M120.778 110.037C120.778 110.037 110.554 70.9232 132.232 56.6226C153.909 42.3221 183.975 43.8858 183.175 45.7652C183.175 45.7652 149.481 52.104 135.132 77.5841C124.067 97.2324 120.778 110.037 120.778 110.037Z" fill="white"/>
</g>
<path d="M177.635 282.943C177.635 282.943 131.869 288.092 111.527 270.738C83.7349 247.027 107.566 217.313 128.211 225.229C146.186 232.12 153.578 237.539 185.503 242.735C212.257 247.089 235.236 274.359 216.04 290.188C202.486 301.363 177.635 282.943 177.635 282.943Z" fill="white"/>
<g opacity="0.25">
<path d="M216.037 290.185C202.484 301.362 177.634 282.942 177.634 282.942C177.634 282.942 131.869 288.09 111.523 270.737C103.513 263.9 99.7907 256.564 99.0488 249.779C100.433 251.365 102.025 252.94 103.84 254.484C124.184 271.843 169.95 266.69 169.95 266.69C169.95 266.69 194.8 285.115 208.353 273.939C213.652 269.568 215.741 264.327 215.414 258.932C224.322 268.925 226.764 281.341 216.037 290.185Z" fill="#371B45"/>
</g>
<path d="M205.197 295.887C193.17 295.888 180.195 287.313 177.054 285.105C170.546 285.742 129.68 288.982 110.155 272.323C94.2068 258.718 94.6932 243.632 100.466 234.052C106.622 223.836 118.609 219.306 128.969 223.277C132.957 224.806 136.404 226.253 139.738 227.653C151.251 232.486 161.194 236.66 185.844 240.671C203.702 243.577 220.658 256.698 224.447 270.543C226.668 278.661 224.16 286.209 217.385 291.796C213.791 294.76 209.555 295.886 205.197 295.887ZM178.226 280.772L178.894 281.266C179.077 281.401 193.182 291.704 205.163 291.706C208.653 291.706 211.961 290.832 214.694 288.579C220.204 284.035 222.171 278.178 220.382 271.639C216.992 259.25 201.522 247.46 185.163 244.798C160.017 240.706 149.859 236.442 138.098 231.505C134.794 230.118 131.378 228.684 127.452 227.179C119.009 223.941 109.181 227.736 104.081 236.199C99.1888 244.318 98.9365 257.238 112.9 269.151C132.305 285.706 176.95 280.915 177.399 280.865L178.226 280.772Z" fill="#371B45"/>
<path d="M134.888 283.14C134.135 283.14 133.406 282.738 133.027 282.032C132.48 281.013 132.869 279.746 133.895 279.203C152.6 269.303 147.286 234.451 147.231 234.1C147.049 232.959 147.833 231.888 148.982 231.708C150.131 231.527 151.21 232.306 151.391 233.447C151.638 235 157.201 271.607 135.877 282.894C135.561 283.061 135.222 283.14 134.888 283.14Z" fill="#371B45"/>
<path d="M183.201 282.943C183.201 282.943 228.967 288.092 249.309 270.738C277.102 247.027 253.271 217.313 232.625 225.229C214.651 232.12 207.259 237.539 175.333 242.735C148.579 247.089 125.6 274.359 144.797 290.188C158.35 301.363 183.201 282.943 183.201 282.943Z" fill="white"/>
<g opacity="0.25">
<path d="M249.308 270.737C228.968 288.091 183.204 282.943 183.204 282.943C183.204 282.943 158.348 301.362 144.795 290.186C138.21 284.755 136.588 277.975 138.387 271.242C139.367 274.531 140.328 279.589 143.781 282.25C154.305 290.361 165.946 286.772 173.242 280.346C178.78 275.469 177.876 271.475 181.431 269.49C185.418 267.264 191.075 275.494 203.527 276.138C226.949 277.348 242.927 270.458 250.464 262.813C257.019 256.163 260.144 248.463 261.414 242.342C263.25 250.927 260.362 261.306 249.308 270.737Z" fill="#371B45"/>
</g>
<path d="M155.64 295.886C151.281 295.886 147.047 294.759 143.452 291.794C136.677 286.208 134.169 278.661 136.39 270.542C140.178 256.697 157.135 243.575 174.993 240.67C199.643 236.658 209.587 232.484 221.1 227.651C224.433 226.252 227.88 224.805 231.868 223.276C242.228 219.303 254.216 223.835 260.371 234.051C266.144 243.632 266.631 258.717 250.683 272.322C231.156 288.981 190.291 285.741 183.783 285.104C180.643 287.311 167.666 295.886 155.64 295.886ZM239.615 226.029C237.514 226.029 235.41 226.401 233.385 227.178C229.459 228.682 226.044 230.117 222.74 231.504C210.979 236.44 200.821 240.705 175.674 244.797C159.315 247.459 143.845 259.249 140.455 271.639C138.666 278.177 140.633 284.034 146.143 288.577C158.259 298.568 181.707 281.439 181.943 281.265L182.61 280.771L183.438 280.864C183.887 280.913 228.533 285.704 247.938 269.15C261.901 257.237 261.649 244.317 256.757 236.198C252.88 229.765 246.271 226.029 239.615 226.029Z" fill="#371B45"/>
<path d="M225.949 283.141C225.615 283.141 225.276 283.062 224.96 282.895C203.636 271.608 209.198 235.001 209.445 233.448C209.627 232.308 210.703 231.531 211.854 231.709C213.002 231.889 213.787 232.959 213.606 234.1C213.551 234.451 208.263 269.318 226.942 279.204C227.968 279.747 228.356 281.013 227.809 282.033C227.43 282.739 226.702 283.141 225.949 283.141Z" fill="#371B45"/>
</svg>
