<svg width="547" height="429" viewBox="0 0 547 429" fill="none" xmlns="http://www.w3.org/2000/svg">
<path d="M81.9948 418.273C81.9948 419.297 79.7281 420.191 76.3423 420.683C74.633 420.931 73.2866 422.178 73.0186 423.762C72.4877 426.899 71.5233 428.999 70.4176 428.999C69.3119 428.999 68.3476 426.899 67.8167 423.762C67.5486 422.178 66.202 420.931 64.4926 420.683C61.1043 420.191 58.832 419.297 58.832 418.273C58.832 417.243 61.1025 416.348 64.4883 415.86C66.1999 415.613 67.5488 414.365 67.8168 412.779C68.3478 409.639 69.3121 407.539 70.4178 407.539C71.5235 407.539 72.4878 409.639 73.0188 412.779C73.2868 414.364 74.6355 415.613 76.3469 415.86C79.7299 416.348 81.9948 417.243 81.9948 418.273Z" fill="#E8ED07"/>
<path d="M546.412 308.951C546.173 309.95 543.754 310.368 540.338 310.172C538.613 310.072 537.009 311.02 536.379 312.511C535.131 315.464 533.702 317.32 532.623 317.099C531.545 316.878 531.093 314.637 531.305 311.472C531.413 309.873 530.39 308.388 528.78 307.804C525.59 306.647 523.581 305.322 523.82 304.322C524.06 303.318 526.482 302.899 529.899 303.099C531.625 303.2 533.232 302.252 533.862 300.759C535.111 297.803 536.54 295.947 537.619 296.168C538.697 296.389 539.149 298.63 538.936 301.799C538.828 303.398 539.853 304.885 541.465 305.468C544.651 306.621 546.651 307.946 546.412 308.951Z" fill="#E8ED07"/>
<path d="M454.801 29.773C454.801 30.9077 452.29 31.8972 448.54 32.442C446.647 32.7171 445.156 34.0986 444.859 35.8526C444.271 39.3267 443.203 41.6528 441.978 41.6528C440.754 41.6528 439.686 39.3268 439.098 35.8529C438.801 34.0987 437.309 32.7171 435.416 32.4422C431.663 31.8974 429.146 30.9078 429.146 29.7732C429.146 28.6321 431.661 27.6415 435.411 27.1004C437.307 26.8268 438.801 25.4443 439.098 23.6883C439.686 20.2104 440.754 17.8848 441.978 17.8848C443.203 17.8848 444.271 20.2104 444.859 23.6885C445.156 25.4445 446.65 26.8268 448.545 27.1005C452.293 27.6415 454.801 28.6321 454.801 29.773Z" fill="#E8ED07"/>
<path d="M493.081 110.397C494.37 109.203 494.37 107.266 493.081 106.072C491.792 104.877 489.702 104.877 488.412 106.072C487.123 107.266 487.123 109.203 488.412 110.397C489.702 111.591 491.792 111.591 493.081 110.397Z" fill="#E8ED07"/>
<path d="M487.963 359.721C488.496 358.224 487.617 356.609 486 356.116C484.384 355.622 482.641 356.437 482.109 357.934C481.576 359.432 482.455 361.046 484.072 361.54C485.688 362.033 487.431 361.219 487.963 359.721Z" fill="#E8ED07"/>
<path d="M516.396 411.27C518.558 411.264 520.306 409.635 520.3 407.632C520.294 405.629 518.537 404.01 516.375 404.016C514.213 404.022 512.465 405.651 512.471 407.654C512.477 409.657 514.234 411.276 516.396 411.27Z" fill="#E8ED07"/>
<path d="M128.263 82.7491C128.34 80.4348 126.378 78.5005 123.88 78.4287C121.382 78.3569 119.294 80.1748 119.216 82.4892C119.139 84.8035 121.101 86.7379 123.599 86.8097C126.097 86.8814 128.185 85.0635 128.263 82.7491Z" fill="#E8ED07"/>
<path d="M360.649 54.4313C362.472 54.4313 363.95 53.062 363.95 51.3729C363.95 49.6838 362.472 48.3145 360.649 48.3145C358.826 48.3145 357.348 49.6838 357.348 51.3729C357.348 53.062 358.826 54.4313 360.649 54.4313Z" fill="#E8ED07"/>
<path d="M91.1027 9.34535C93.4187 8.47519 94.5349 6.03028 93.5957 3.88451C92.6565 1.73873 90.0175 0.704652 87.7014 1.57482C85.3854 2.44498 84.2692 4.88988 85.2084 7.03566C86.1477 9.18143 88.7866 10.2155 91.1027 9.34535Z" fill="#E8ED07"/>
<path d="M22.3393 374.864C22.8139 373.018 21.5838 371.166 19.5917 370.726C17.5996 370.286 15.5998 371.426 15.1251 373.271C14.6504 375.117 15.8806 376.97 17.8727 377.41C19.8648 377.849 21.8646 376.71 22.3393 374.864Z" fill="#E8ED07"/>
<path d="M535.159 173.296C536.096 173.296 536.856 172.592 536.856 171.723C536.856 170.855 536.096 170.15 535.159 170.15C534.221 170.15 533.461 170.855 533.461 171.723C533.461 172.592 534.221 173.296 535.159 173.296Z" fill="#E8ED07"/>
<path d="M412.528 424.441C413.2 423.62 413.026 422.45 412.14 421.828C411.254 421.206 409.991 421.367 409.32 422.188C408.648 423.008 408.822 424.178 409.708 424.801C410.594 425.423 411.857 425.262 412.528 424.441Z" fill="#E8ED07"/>
<path d="M179.691 17.5349C180.913 17.1669 181.582 15.9505 181.185 14.8178C180.788 13.6852 179.475 13.0654 178.253 13.4333C177.03 13.8013 176.361 15.0178 176.758 16.1504C177.155 17.283 178.468 17.9029 179.691 17.5349Z" fill="#E8ED07"/>
<path d="M41.7145 105.228C42.9533 104.911 43.6798 103.723 43.3372 102.575C42.9945 101.427 41.7124 100.754 40.4736 101.072C39.2347 101.389 38.5083 102.577 38.8509 103.725C39.1936 104.872 40.4757 105.545 41.7145 105.228Z" fill="#E8ED07"/>
<path d="M67.5436 179.514C67.5148 180.489 66.6382 181.259 65.5854 181.232C64.5327 181.205 63.7024 180.393 63.7312 179.418C63.76 178.442 64.6367 177.673 65.6894 177.7C66.7423 177.727 67.5724 178.539 67.5436 179.514Z" fill="#E8ED07"/>
<path d="M8.64463 201.904C10.3427 200.703 10.6678 198.453 9.37083 196.88C8.07381 195.307 5.6458 195.005 3.94771 196.207C2.24962 197.409 1.92448 199.658 3.2215 201.231C4.51852 202.805 6.94654 203.106 8.64463 201.904Z" fill="#E8ED07"/>
<path d="M226.817 283.203C226.817 283.203 223.768 303.4 206.541 320.568C193.415 333.65 172.225 334.538 173.811 346.866H281.089L226.817 283.203Z" fill="white"/>
<path d="M281.087 346.866H173.813C172.225 334.536 193.412 333.648 206.539 320.568C214.676 312.452 219.659 303.664 222.639 296.647C224.849 291.455 225.963 287.235 226.462 284.984C226.721 283.837 226.818 283.201 226.818 283.201L242.387 301.467L246.767 306.605L278.741 344.116L281.087 346.866Z" fill="white"/>
<g opacity="0.35">
<path d="M281.088 346.865H205.406C211.199 344.05 216.393 339.42 222.803 335.634C232.839 329.706 233.754 314.24 232.105 308.992L281.088 346.865Z" fill="#371A45"/>
</g>
<path d="M281.087 349.267H173.808C172.496 349.267 171.39 348.358 171.235 347.151C170.1 338.324 178.275 334.361 186.931 330.166C192.806 327.319 199.466 324.092 204.641 318.934C221.068 302.564 224.219 283.064 224.249 282.869C224.395 281.918 225.138 281.138 226.139 280.887C227.142 280.639 228.207 280.962 228.849 281.716L283.12 345.378C283.736 346.1 283.852 347.085 283.419 347.913C282.986 348.742 282.08 349.267 281.087 349.267ZM176.428 344.465H275.737L228.196 288.698C226.143 295.998 220.888 309.796 208.437 322.204C202.656 327.965 195.578 331.395 189.334 334.422C181.855 338.046 177.184 340.51 176.428 344.465Z" fill="#371A45"/>
<path d="M477.921 233.752C475.757 237.852 470.697 240.475 462.922 240.517C453.048 240.565 452.834 241.814 452.899 242.09C452.912 242.126 452.925 242.144 452.925 242.144C452.925 242.144 454.616 244.587 456.903 248.608C456.91 248.62 456.916 248.638 456.923 248.651C457.02 248.813 457.117 248.981 457.214 249.155C457.221 249.173 457.227 249.185 457.24 249.203C464.108 261.454 475.634 287.002 463.952 304.073C449.64 324.975 384.026 335.251 361.201 340.792C342.476 345.342 307.774 347.347 278.741 344.117C272.366 343.409 266.269 342.448 260.671 341.206C242.446 337.166 233.615 316.133 229.507 300.454C227.745 293.719 226.857 287.974 226.462 284.985C226.28 283.58 226.209 282.782 226.209 282.782C226.209 282.782 274.472 244.725 342.094 240.703C353.173 240.043 364.764 240.301 376.75 241.784C397.328 244.335 410.442 249.281 410.442 249.281C413.642 240.727 402.913 227.179 409.528 214.946C417.303 200.563 464.568 196.836 476.833 220.318C479.502 225.432 479.826 230.162 477.921 233.752Z" fill="white"/>
<path d="M456.922 248.65C457.019 248.812 457.116 248.98 457.213 249.155C457.09 248.987 457 248.824 456.922 248.65Z" fill="white"/>
<g opacity="0.35">
<path d="M477.923 233.751C475.759 237.851 470.698 240.474 462.924 240.516C453.049 240.564 452.836 241.813 452.901 242.089C448.605 236.212 442.852 230.047 442.852 230.047C442.852 230.047 446.953 229.243 456.632 234.261C462.029 237.059 473.07 239.022 477.923 233.751Z" fill="#371A45"/>
</g>
<g opacity="0.35">
<path d="M463.954 304.073C423.265 339.205 318.234 352.738 260.675 341.21C245.137 337.763 236.432 321.974 231.656 307.678C230.146 303.157 226.964 299.306 222.708 296.689L222.641 296.648C225.063 290.198 226.81 286.715 226.211 282.782C226.211 282.782 274.473 244.725 342.095 240.703C325.114 292.057 280.666 322.562 231.97 301.624C237.102 313.618 245.298 325.041 258.23 327.904C289.336 334.801 335.934 333.036 358.76 327.49C366.23 325.677 366.871 275.675 374.614 286.168C412.121 337.016 457.715 302.129 462.898 294.007C467.343 287.044 466.857 277.716 466.442 270.567C469.727 281.791 470.634 294.319 463.954 304.073Z" fill="#371A45"/>
</g>
<path d="M237.313 319.159C239.888 323.064 242.604 326.843 245.872 330.064C247.487 331.684 249.236 333.153 251.081 334.45C252.932 335.744 254.935 336.788 257.009 337.607C259.111 338.43 261.197 338.885 263.679 339.315L267.266 339.978L270.892 340.505C275.718 341.244 280.605 341.716 285.492 342.169C305.066 343.766 324.975 343.598 344.469 341.254C349.326 340.629 354.183 339.916 358.878 338.834L360.651 338.446L362.485 338.013L366.141 337.191L373.432 335.626C383.138 333.579 392.802 331.532 402.37 329.187C411.93 326.84 421.412 324.245 430.601 321.044C435.189 319.439 439.702 317.677 444.027 315.643C448.34 313.608 452.49 311.298 456.086 308.523C457.022 307.858 457.803 307.082 458.65 306.355C459.059 305.981 459.405 305.571 459.787 305.182C460.169 304.793 460.543 304.399 460.842 303.971C461.16 303.55 461.494 303.143 461.805 302.714L462.646 301.344C462.947 300.898 463.181 300.418 463.409 299.935C463.636 299.452 463.897 298.983 464.1 298.49C465.734 294.539 466.44 290.219 466.34 285.847C466.301 281.473 465.507 277.064 464.367 272.731C463.193 268.397 461.628 264.126 459.774 259.956C457.928 255.783 455.799 251.699 453.455 247.741C452.871 246.75 452.263 245.774 451.647 244.809L451.181 244.092L450.948 243.74L450.832 243.567L450.778 243.488C450.875 243.616 450.631 243.343 450.431 242.806C450.294 242.385 450.295 242.081 450.324 241.725C450.362 241.448 450.455 241.141 450.569 240.905C450.664 240.721 450.78 240.541 450.91 240.374C451.061 240.178 451.12 240.143 451.234 240.03C451.337 239.935 451.445 239.845 451.556 239.761C451.649 239.693 451.717 239.654 451.8 239.602C451.949 239.512 452.152 239.391 452.266 239.345C452.805 239.097 453.224 238.979 453.633 238.868C455.184 238.495 456.484 238.392 457.816 238.283C459.126 238.197 460.419 238.144 461.695 238.13C463.04 238.129 464.075 238.048 465.231 238.009C466.326 237.855 467.453 237.766 468.479 237.471C470.565 236.971 472.466 236.117 473.848 234.87C475.237 233.633 476.102 232.018 476.393 230.192C476.691 228.368 476.419 226.374 475.786 224.43C475.601 223.945 475.47 223.452 475.249 222.974L474.58 221.539C474.346 221.066 474.049 220.623 473.789 220.162L473.388 219.476L472.915 218.831C471.724 217.064 470.16 215.531 468.478 214.128C465.068 211.337 460.851 209.361 456.401 208.011C451.92 206.707 447.192 205.995 442.434 205.867C441.246 205.8 440.054 205.854 438.864 205.849C437.676 205.916 436.484 205.932 435.302 206.06C432.93 206.241 430.581 206.603 428.277 207.082C425.967 207.549 423.718 208.207 421.576 209.021C419.438 209.836 417.396 210.827 415.642 212.052L414.395 213.012C414.035 213.364 413.644 213.699 413.299 214.055C413.007 214.433 412.641 214.783 412.392 215.173C412.158 215.585 411.872 215.899 411.663 216.391C410.728 218.204 410.203 220.174 410.005 222.222C409.617 226.344 410.627 230.678 411.774 235.124C412.341 237.363 412.961 239.645 413.346 242.102C413.708 244.533 413.916 247.26 412.887 250.07C412.43 251.318 410.968 251.986 409.622 251.563L409.517 251.528L409.46 251.507C407.717 250.874 405.768 250.269 403.882 249.716C401.979 249.155 400.049 248.651 398.116 248.162C394.241 247.203 390.322 246.377 386.376 245.673C382.431 244.972 378.457 244.374 374.465 243.967L368.475 243.36L362.462 242.999C354.437 242.643 346.387 242.764 338.372 243.375C330.361 244.023 322.398 245.176 314.533 246.754C298.812 249.938 283.452 254.815 268.954 261.354C254.445 267.901 240.669 275.602 226.766 283.39L226.738 283.405C226.327 283.636 225.792 283.513 225.543 283.133C225.339 282.819 225.392 282.428 225.646 282.17C228.476 279.308 231.59 276.802 234.828 274.422C236.439 273.223 238.109 272.101 239.777 270.974C241.475 269.889 243.166 268.791 244.909 267.769C251.834 263.606 259.155 260.031 266.647 256.833C281.631 250.448 297.268 245.287 313.431 242.061C321.505 240.441 329.688 239.257 337.929 238.591C346.173 237.961 354.461 237.835 362.727 238.203L368.922 238.575L375.093 239.201C379.206 239.621 383.291 240.235 387.354 240.957C391.417 241.682 395.455 242.532 399.46 243.524C401.46 244.03 403.456 244.551 405.439 245.136C407.44 245.725 409.363 246.313 411.416 247.06L407.99 248.496C408.594 246.911 408.547 244.883 408.215 242.783C407.888 240.676 407.303 238.478 406.731 236.232C405.592 231.748 404.38 226.931 404.841 221.812C405.081 219.273 405.76 216.699 406.972 214.348C407.224 213.765 407.684 213.142 408.051 212.547C408.446 211.952 408.938 211.452 409.386 210.906C409.868 210.404 410.386 209.949 410.891 209.473C411.423 209.045 411.97 208.638 412.512 208.224C414.738 206.673 417.146 205.521 419.6 204.581C422.059 203.647 424.575 202.918 427.124 202.4C429.671 201.869 432.243 201.477 434.83 201.278C436.12 201.141 437.418 201.119 438.713 201.049C440.009 201.051 441.307 200.998 442.603 201.067C447.789 201.21 452.972 201.979 457.986 203.439C462.971 204.95 467.827 207.195 471.898 210.519C473.906 212.187 475.787 214.047 477.246 216.191C478.734 218.316 479.965 220.565 480.746 223.036C481.541 225.489 481.959 228.169 481.518 230.912C481.104 233.64 479.666 236.376 477.451 238.323C475.251 240.296 472.501 241.463 469.797 242.115C468.435 242.491 467.071 242.612 465.709 242.79C464.38 242.85 462.932 242.933 461.788 242.931C460.578 242.945 459.384 242.995 458.214 243.07C457.07 243.156 455.883 243.284 455.025 243.494C454.837 243.544 454.664 243.604 454.644 243.613C454.613 243.621 454.695 243.594 454.71 243.576L454.76 243.536C454.814 243.501 454.865 243.46 454.912 243.415C454.974 243.355 454.962 243.357 455.078 243.228C455.167 243.122 455.241 243.003 455.294 242.88C455.382 242.71 455.459 242.475 455.475 242.266C455.509 241.981 455.494 241.752 455.388 241.4C455.203 240.934 455.013 240.717 455.149 240.907L455.22 241.011L455.35 241.205L455.605 241.589L456.101 242.353C456.752 243.372 457.386 244.392 457.995 245.424C460.436 249.546 462.642 253.776 464.569 258.132C466.503 262.483 468.149 266.964 469.397 271.572C470.61 276.184 471.474 280.929 471.523 285.783C471.63 290.619 470.861 295.581 468.924 300.248C468.683 300.83 468.379 301.391 468.107 301.963C467.835 302.535 467.553 303.103 467.199 303.64L466.192 305.273C465.813 305.801 465.399 306.317 465.001 306.838C464.614 307.375 464.169 307.848 463.717 308.314C463.264 308.778 462.834 309.274 462.359 309.71C461.389 310.554 460.456 311.459 459.418 312.202C455.36 315.329 450.913 317.779 446.372 319.926C441.822 322.065 437.151 323.885 432.433 325.537C422.991 328.825 413.362 331.456 403.692 333.83C394.021 336.201 384.283 338.263 374.587 340.308L367.339 341.863L363.744 342.672L361.962 343.092L360.104 343.501C355.14 344.641 350.153 345.371 345.159 346.013C335.168 347.217 325.147 347.867 315.112 348.096C305.079 348.326 295.024 348.156 284.995 347.303C279.979 346.881 274.972 346.318 269.993 345.488L266.262 344.853L262.551 344.073C260.154 343.625 257.399 342.902 254.968 341.81C250.012 339.676 246.006 336.194 242.887 332.37C239.75 328.519 237.463 324.24 235.75 319.842C235.587 319.424 235.821 318.963 236.271 318.813C236.666 318.681 237.096 318.83 237.306 319.149L237.313 319.159Z" fill="#371A45"/>
<path d="M250.716 376.751L341.785 350.737C345.999 349.753 348.962 346.254 348.991 342.227L194.348 341.156L194.349 378.065L235.122 378.466C240.378 378.518 245.619 377.941 250.716 376.751Z" fill="#008CFF"/>
<g opacity="0.35">
<path d="M348.608 344.641C347.677 347.597 345.128 349.958 341.787 350.735L250.714 376.75C245.622 377.939 240.379 378.517 235.119 378.464L194.346 378.062L196.918 372.91L237.691 373.553C242.946 373.639 248.188 373.092 253.298 371.93L344.55 346.616C346.099 346.269 347.481 345.578 348.608 344.641Z" fill="#371A45"/>
</g>
<path d="M235.769 380.542C235.545 380.542 235.321 380.541 235.097 380.538L192.111 380.116L192.109 339.068L351.242 340.17L351.227 342.241C351.19 347.192 347.56 351.498 342.39 352.733L251.262 378.76C246.198 379.943 240.99 380.542 235.769 380.542ZM196.584 376.015L235.144 376.394C240.198 376.45 245.222 375.892 250.112 374.754L341.236 348.728C343.711 348.15 345.622 346.439 346.388 344.282L196.583 343.244L196.584 376.015Z" fill="#371A45"/>
<path d="M248.159 367.947L348.504 342.332C348.571 342.317 348.56 342.226 348.492 342.226L194.348 340.439V369.388H234.456C239.068 369.388 243.665 368.905 248.159 367.947Z" fill="#008CFF"/>
<path d="M229.514 361.812L293.819 348.88C294.858 348.704 294.72 347.285 293.663 347.285L216.076 346.75V363.64L229.514 361.812Z" fill="#AFB2B1"/>
<path d="M213.84 366.041V344.664L293.68 345.215C295.281 345.215 296.61 346.34 296.755 347.832C296.901 349.324 295.81 350.652 294.22 350.92L229.84 363.864L213.84 366.041ZM218.313 348.84V361.243L229.115 359.774L281.319 349.275L218.313 348.84ZM293.645 349.36C293.651 349.36 293.658 349.36 293.664 349.36H293.645ZM293.345 346.856C293.321 346.86 293.297 346.865 293.273 346.87L293.345 346.856Z" fill="#371A45"/>
<path d="M234.454 371.459H192.109V338.34L350.499 340.175L350.771 342.047C350.894 343.095 350.173 344.063 349.082 344.332L248.659 369.965C244.007 370.957 239.228 371.459 234.454 371.459ZM196.583 367.315H234.454C238.875 367.315 243.301 366.851 247.61 365.936L333.077 344.118L196.583 342.536V367.315ZM348.449 344.296C348.458 344.296 348.467 344.297 348.476 344.297L348.449 344.296Z" fill="#371A45"/>
<path d="M411.547 247.113C413.33 247.782 414.876 248.525 416.443 249.367C418.001 250.192 419.494 251.11 420.956 252.065C423.877 253.982 426.567 256.192 429.097 258.53C431.642 260.854 433.933 263.419 435.985 266.114L437.47 268.167C437.931 268.874 438.368 269.593 438.797 270.312L439.442 271.385L440.009 272.501C440.393 273.239 440.746 273.989 441.1 274.731C441.184 274.905 441.099 275.109 440.911 275.186C440.754 275.25 440.575 275.206 440.472 275.088L440.457 275.071C438.262 272.564 436.093 270.128 433.619 267.952C431.2 265.744 428.67 263.667 425.993 261.766C423.338 259.845 420.565 258.08 417.773 256.359C417.059 255.951 416.365 255.515 415.663 255.091L413.538 253.851L409.332 251.455L409.214 251.388C407.994 250.693 407.613 249.213 408.363 248.082C409.037 247.067 410.394 246.679 411.547 247.113Z" fill="#371A45"/>
<path d="M442.15 229.355C443.695 229.994 445.022 230.847 446.287 231.756C447.562 232.66 448.684 233.696 449.803 234.746C450.909 235.806 451.967 236.914 452.956 238.091C453.924 239.283 454.852 240.526 455.589 241.913C456.135 242.943 455.678 244.187 454.568 244.694C453.555 245.155 452.348 244.844 451.729 244.005L451.711 243.981C450.068 241.76 448.405 239.415 446.723 237.037C445.895 235.838 445.012 234.668 444.251 233.391C443.477 232.123 442.732 230.823 442.15 229.355Z" fill="#371A45"/>
<path d="M323.483 203.416C333.867 194.957 382.464 191.585 404.953 204.717C425.609 216.778 430.915 256.141 418.365 253.576C390.165 247.814 367.833 245.215 326.186 251.946C299.317 255.407 313.1 211.876 323.483 203.416Z" fill="white"/>
<g opacity="0.35">
<path d="M418.366 253.583C390.163 247.82 367.836 245.221 326.188 251.95C311.818 253.805 309.077 242.208 311.221 229.729C312.764 236.013 317.202 240.113 326.188 238.955C338.623 236.944 356.147 211.594 356.147 211.594C356.147 211.594 356.892 232.46 365.698 236.593C376.751 241.782 403.121 237.466 418.366 240.581C421.418 241.206 423.407 239.351 424.385 236.019C426.29 246.422 424.379 254.814 418.366 253.583Z" fill="#371A45"/>
</g>
<path d="M419.478 256.102C418.936 256.102 418.378 256.045 417.808 255.928C387.548 249.745 366.186 247.926 326.632 254.319C326.603 254.324 326.574 254.328 326.544 254.332C316.538 255.62 312.035 251.028 310.018 246.95C303.892 234.565 313.253 208.561 321.773 201.62C333.481 192.08 383.314 189.25 406.335 202.692C423.335 212.619 431.185 240.258 426.289 251.3C424.92 254.388 422.442 256.102 419.478 256.102ZM369.922 245.564C386.886 245.564 401.677 247.714 418.924 251.239C419.538 251.365 420.565 251.575 421.495 249.476C425.138 241.257 419 215.764 403.572 206.755C381.776 194.028 334.372 197.749 325.195 205.227C318.624 210.58 309.367 234.109 314.729 244.949C316.619 248.771 320.24 250.286 325.787 249.581C343.06 246.791 357.111 245.564 369.922 245.564Z" fill="#371A45"/>
<path d="M388.318 215.652C383.135 221.94 383.668 241.54 388.394 242.843C393.12 244.147 409.813 245.456 413.472 242.702C417.131 239.948 418.754 229.339 415.243 223.777C411.698 218.163 392.129 211.029 388.318 215.652Z" fill="white"/>
<g opacity="0.35">
<path d="M416.908 235.294C416.377 238.578 415.133 241.453 413.474 242.701C409.813 245.457 393.123 244.148 388.394 242.845C384.96 241.897 383.742 231.284 385.316 223.139C385.99 228.097 387.804 232.155 390.162 231.987C393.881 231.722 395.812 224.471 395.812 224.471C395.812 224.471 396.752 233.469 400.458 236.861C405.084 241.099 413.837 237.773 416.176 236.014C416.429 235.823 416.675 235.582 416.908 235.294Z" fill="#371A45"/>
</g>
<path d="M403.296 245.97C397.143 245.97 390.472 245.145 387.884 244.432C386.275 243.988 385.025 242.528 384.169 240.092C382.025 233.985 382.229 220.306 386.897 214.645C388.209 213.054 390.597 212.347 393.98 212.538C401.407 212.962 413.634 217.944 416.788 222.94C420.797 229.289 418.934 240.726 414.601 243.988C412.645 245.46 408.13 245.97 403.296 245.97ZM392.953 215.824C391.356 215.824 390.182 216.123 389.741 216.658C386.182 220.975 385.491 233.138 387.572 239.066C388.15 240.711 388.743 241.209 388.905 241.254C393.794 242.603 409.553 243.516 412.344 241.415C415.163 239.293 416.874 229.644 413.698 224.614C411.41 220.99 400.603 216.238 393.761 215.848C393.481 215.832 393.212 215.824 392.953 215.824Z" fill="#371A45"/>
<path d="M396.513 222.129C396.356 226.175 396.25 230.205 396.566 234.092C396.736 236.02 397.038 237.941 397.594 239.589C397.875 240.406 398.241 241.14 398.659 241.647C399.095 242.151 399.484 242.422 400.122 242.595L400.45 242.684C401.39 242.938 401.93 243.851 401.655 244.722C401.406 245.512 400.572 245.996 399.718 245.889C399.335 245.842 398.944 245.808 398.562 245.718C398.188 245.59 397.787 245.494 397.442 245.305C396.738 244.947 396.101 244.472 395.647 243.937C394.689 242.874 394.2 241.708 393.868 240.598C393.214 238.362 393.232 236.212 393.34 234.117C393.471 232.022 393.804 229.976 394.245 227.962C394.704 225.95 395.274 223.972 396.012 222.035C396.059 221.91 396.207 221.845 396.341 221.889C396.45 221.924 396.517 222.021 396.513 222.122L396.513 222.129Z" fill="#371A45"/>
<path d="M360.557 203.568C359.537 207.62 358.331 211.677 357.77 215.556C357.688 216.042 357.661 216.512 357.609 216.987L357.461 218.559L357.177 221.706L356.682 227.962C356.54 230.033 356.457 232.097 356.452 234.113C356.452 236.128 356.576 238.115 356.924 239.926C357.288 241.727 357.939 243.31 358.924 244.215C359.873 245.136 361.414 245.577 363.335 245.667L363.429 245.671C364.858 245.738 365.958 246.866 365.886 248.19C365.816 249.459 364.686 250.448 363.335 250.469C362.003 250.487 360.592 250.407 359.157 250.008C357.728 249.625 356.28 248.906 355.127 247.904C353.965 246.907 353.125 245.696 352.546 244.501C351.97 243.295 351.617 242.094 351.359 240.92C350.857 238.572 350.78 236.317 350.774 234.107C350.767 231.896 350.941 229.735 351.122 227.59C351.305 225.446 351.56 223.324 351.832 221.212L352.246 218.052L352.46 216.47C352.565 215.898 352.652 215.316 352.79 214.764C353.278 212.527 354.055 210.437 354.956 208.417C355.872 206.397 356.9 204.467 358.186 202.601C358.575 202.035 359.385 201.869 359.996 202.23C360.477 202.514 360.69 203.041 360.568 203.527L360.557 203.568Z" fill="#371A45"/>
<path d="M426.075 324.019C417.464 332.165 407.137 328.839 407.137 328.839C407.137 328.839 411.193 316.966 411.504 302.295C411.588 298.339 411.4 294.173 410.784 289.984C406.968 264.034 385.289 249.033 385.289 249.033C385.289 249.033 396.913 238.289 411.97 250.15C423.159 258.968 430.312 281.904 431.232 300.272C431.777 310.969 430.196 320.117 426.075 324.019Z" fill="white"/>
<g opacity="0.35">
<path d="M426.075 324.019C417.464 332.165 407.137 328.839 407.137 328.839C407.137 328.839 411.193 316.966 411.504 302.295C413.376 306.461 415.864 310.627 418.022 309.829C421.073 308.694 420.477 298.886 420.749 295.86C420.834 294.912 424.125 300.044 424.961 308.316C425.473 313.334 429.088 305.489 431.233 300.273C431.777 310.969 430.196 320.117 426.075 324.019Z" fill="#371A45"/>
</g>
<path d="M412.344 331.922C408.9 331.922 406.505 331.179 406.29 331.11L403.91 330.345L404.668 328.118C404.732 327.931 410.997 309.22 408.217 290.306C404.603 265.716 383.943 251.099 383.735 250.954L381.342 249.291L383.458 247.332C383.591 247.209 396.965 235.179 413.651 248.324C425.689 257.807 432.915 281.623 433.833 300.246C434.182 307.335 433.879 320.067 427.928 325.696C422.572 330.764 416.641 331.922 412.344 331.922ZM410.388 327.024C413.519 327.358 419.18 327.109 424.225 322.336C427.52 319.22 429.175 311.043 428.654 300.465C427.809 283.309 421.087 260.486 410.293 251.982C400.887 244.573 393.156 247.052 389.454 249.122C395.53 254.126 410.2 268.208 413.353 289.659C415.706 305.664 412.076 321.081 410.388 327.024Z" fill="#371A45"/>
<g opacity="0.2">
<path d="M46.1055 248.649C46.1055 248.649 176.732 138.915 177.384 139C95.3124 233.414 228.626 293.097 228.626 293.097L238.662 371.29L46.1055 248.649Z" fill="#FCE85B"/>
</g>
<path d="M162.96 250.541C171.616 263.312 183.81 274.136 198.849 281.671C201.916 283.206 205.091 284.605 208.379 285.854C209.977 286.466 211.614 287.038 213.274 287.586C218.285 289.212 223.345 290.441 228.421 291.29C232.793 292.032 237.18 292.485 241.54 292.676C246.807 292.907 252.046 292.74 257.211 292.206C259.094 292.005 260.966 291.76 262.826 291.47C296.869 286.091 326.946 264.531 339.513 232.659C358.037 185.713 331.541 134.191 280.35 117.576C270.488 114.382 260.421 112.7 250.474 112.435C249.311 112.394 248.143 112.383 246.976 112.395C243.855 112.408 240.751 112.557 237.672 112.839C230.553 113.495 223.563 114.862 216.833 116.879C210.102 118.889 203.613 121.557 197.505 124.823C195.562 125.86 193.656 126.956 191.787 128.117C188.989 129.859 186.281 131.723 183.674 133.734C170.669 143.706 160.278 156.861 154.111 172.502C143.454 199.507 147.697 228.021 162.96 250.541Z" fill="white"/>
<path d="M246.158 293.041C244.608 293.041 243.064 293.008 241.528 292.94C237.09 292.746 232.663 292.279 228.37 291.55C223.247 290.693 218.136 289.443 213.181 287.835C211.355 287.232 209.749 286.664 208.271 286.099C205.042 284.872 201.826 283.46 198.714 281.903C184.02 274.541 171.573 263.745 162.719 250.682C146.748 227.117 143.513 198.588 153.843 172.411C159.813 157.269 170.066 143.824 183.493 133.529C186.032 131.571 188.77 129.676 191.629 127.897C193.465 126.755 195.394 125.644 197.363 124.593C203.49 121.317 210.012 118.637 216.746 116.626C223.545 114.589 230.576 113.226 237.645 112.575C240.72 112.293 243.859 112.143 246.976 112.13C248.201 112.117 249.382 112.13 250.486 112.17C260.638 112.44 270.718 114.175 280.445 117.325C305.377 125.417 325.267 141.943 336.452 163.86C347.549 185.603 348.732 210.068 339.783 232.75C327.636 263.555 298.167 286.155 262.875 291.73C261.012 292.02 259.117 292.269 257.245 292.468C253.558 292.849 249.845 293.041 246.158 293.041ZM163.203 250.4C172.005 263.386 184.379 274.118 198.986 281.437C202.081 282.985 205.278 284.389 208.489 285.608C209.959 286.171 211.556 286.736 213.371 287.336C218.297 288.933 223.378 290.176 228.472 291.029C232.742 291.753 237.143 292.218 241.555 292.41C246.719 292.637 251.976 292.48 257.18 291.942C259.042 291.744 260.927 291.497 262.78 291.208C297.869 285.664 327.169 263.195 339.245 232.567C348.142 210.021 346.966 185.7 335.935 164.086C324.816 142.299 305.042 125.87 280.256 117.825C270.585 114.693 260.562 112.969 250.466 112.699C249.37 112.66 248.199 112.648 246.98 112.659C243.88 112.672 240.759 112.821 237.702 113.102C230.673 113.749 223.682 115.105 216.921 117.131C210.225 119.13 203.741 121.795 197.648 125.052C195.691 126.097 193.772 127.202 191.948 128.336C189.105 130.105 186.383 131.989 183.858 133.936C170.508 144.172 160.315 157.539 154.38 172.593C144.111 198.615 147.327 226.975 163.203 250.4Z" fill="#371A45"/>
<g opacity="0.35">
<path d="M339.514 232.656C326.95 264.53 296.868 286.093 262.825 291.466C260.965 291.759 259.094 292.004 257.214 292.203C252.047 292.739 246.809 292.903 241.543 292.675C237.182 292.482 232.794 292.031 228.424 291.29C223.346 290.442 218.289 289.212 213.273 287.587C211.617 287.034 209.981 286.466 208.38 285.856C205.091 284.605 201.919 283.201 198.85 281.668C183.812 274.133 171.615 263.313 162.959 250.538C158.203 243.523 154.514 235.92 152.016 227.965C160.581 239.979 172.34 250.156 186.687 257.345C189.753 258.886 192.928 260.283 196.217 261.534C197.812 262.145 199.448 262.714 201.11 263.264C206.126 264.89 211.183 266.119 216.256 266.97C220.631 267.708 225.014 268.162 229.375 268.355C234.64 268.583 239.885 268.417 245.045 267.883C246.931 267.682 248.802 267.436 250.662 267.144C284.705 261.77 314.781 240.21 327.351 208.333C334.689 189.739 334.956 170.429 329.432 152.857C345.695 175.641 350.449 204.947 339.514 232.656Z" fill="#371A45"/>
</g>
<path d="M246.156 294.816C244.577 294.816 243.002 294.782 241.436 294.713C236.914 294.516 232.401 294.039 228.024 293.296C222.807 292.423 217.598 291.149 212.547 289.511C210.681 288.895 209.046 288.316 207.539 287.739C204.252 286.491 200.975 285.052 197.803 283.465C182.818 275.957 170.126 264.947 161.096 251.625C144.807 227.593 141.508 198.498 152.043 171.801C158.129 156.364 168.582 142.657 182.271 132.161C184.856 130.168 187.646 128.236 190.56 126.423C192.433 125.259 194.399 124.126 196.406 123.055C202.649 119.717 209.295 116.986 216.157 114.937C223.084 112.861 230.25 111.472 237.455 110.809C240.59 110.521 243.79 110.368 246.966 110.355C248.209 110.341 249.423 110.356 250.558 110.396C260.889 110.672 271.164 112.439 281.077 115.649C306.497 123.9 326.777 140.752 338.184 163.101C349.501 185.277 350.708 210.228 341.581 233.359C329.199 264.761 299.164 287.798 263.197 293.48C261.296 293.776 259.369 294.029 257.462 294.232C253.7 294.621 249.915 294.816 246.156 294.816ZM164.825 249.456C173.452 262.183 185.58 272.702 199.897 279.876C202.931 281.394 206.067 282.77 209.215 283.966C210.66 284.52 212.228 285.074 214.014 285.663C218.835 287.227 223.818 288.446 228.812 289.282C233.002 289.993 237.318 290.448 241.644 290.637C246.71 290.861 251.863 290.706 256.967 290.178C258.79 289.984 260.641 289.741 262.461 289.457C296.87 284.021 325.604 261.989 337.445 231.959C346.164 209.861 345.012 186.027 334.203 164.845C323.304 143.491 303.92 127.387 279.623 119.501C270.138 116.429 260.31 114.738 250.411 114.474C249.328 114.436 248.187 114.421 247.001 114.435C243.948 114.447 240.887 114.593 237.89 114.869C230.998 115.504 224.141 116.833 217.51 118.82C210.941 120.781 204.581 123.395 198.605 126.59C196.684 127.615 194.804 128.698 193.014 129.811C190.226 131.546 187.558 133.393 185.083 135.301C171.991 145.339 161.998 158.444 156.18 173.202C146.115 198.705 149.266 226.499 164.825 249.456Z" fill="#371A45"/>
<path d="M246.156 295.408C244.566 295.408 242.983 295.373 241.406 295.304C236.856 295.105 232.315 294.625 227.91 293.878C222.661 293 217.419 291.718 212.336 290.069C210.457 289.449 208.813 288.867 207.295 288.286C203.99 287.03 200.692 285.583 197.5 283.986C182.418 276.429 169.643 265.349 160.555 251.94C144.161 227.751 140.84 198.468 151.444 171.598C157.569 156.063 168.088 142.268 181.864 131.705C184.465 129.7 187.273 127.756 190.204 125.932C192.089 124.76 194.069 123.62 196.087 122.542C202.369 119.184 209.056 116.435 215.962 114.374C222.931 112.285 230.142 110.887 237.392 110.22C240.547 109.93 243.767 109.776 246.964 109.763C248.215 109.749 249.438 109.764 250.583 109.805C260.974 110.082 271.313 111.86 281.288 115.091C306.871 123.394 327.282 140.355 338.762 162.848C350.153 185.168 351.368 210.281 342.182 233.562C329.722 265.163 299.497 288.345 263.305 294.063C261.392 294.361 259.453 294.616 257.536 294.82C253.749 295.211 249.939 295.408 246.156 295.408ZM165.367 249.141C173.935 261.782 185.98 272.23 200.201 279.356C203.215 280.863 206.33 282.23 209.458 283.419C210.895 283.969 212.453 284.52 214.228 285.106C219.014 286.658 223.965 287.869 228.927 288.7C233.09 289.406 237.376 289.859 241.675 290.046C246.705 290.268 251.826 290.114 256.897 289.59C258.707 289.397 260.547 289.156 262.356 288.874C296.538 283.474 325.083 261.587 336.846 231.756C345.506 209.808 344.362 186.135 333.626 165.099C322.8 143.888 303.547 127.893 279.412 120.059C269.991 117.008 260.226 115.328 250.393 115.065C249.313 115.027 248.186 115.014 247.009 115.027C243.971 115.039 240.931 115.184 237.954 115.458C231.107 116.088 224.295 117.409 217.708 119.383C211.18 121.331 204.862 123.928 198.926 127.102C197.016 128.121 195.148 129.197 193.371 130.302C190.602 132.026 187.95 133.861 185.493 135.756C172.486 145.728 162.56 158.746 156.78 173.405C146.784 198.736 149.914 226.341 165.367 249.141L165.367 249.141Z" fill="#371A45"/>
<path d="M178.878 268.383C238.823 301.864 315.634 271.034 315.833 207.206C315.968 163.782 269.587 130.431 223.98 133.275C190.786 135.344 159.268 150.64 148.336 198.617C148.336 198.617 147.077 220.516 154.422 234.62C161.767 248.723 171.522 261.29 171.522 261.29L178.878 268.383Z" fill="#371A45"/>
<path d="M315.83 207.207C315.632 271.033 238.819 301.862 178.876 268.385L177.387 266.945C241.475 273.606 302.547 235.195 304.06 170.656C311.487 181.365 315.869 193.806 315.83 207.207Z" fill="#220F2D"/>
<path d="M230.844 293.946C230.015 293.946 229.189 293.937 228.357 293.919L227.917 293.878C222.661 292.998 217.419 291.717 212.336 290.068C210.457 289.448 208.813 288.866 207.295 288.285C203.99 287.029 200.692 285.581 197.5 283.985C182.418 276.428 169.643 265.347 160.555 251.939C144.161 227.75 140.84 198.467 151.444 171.597C157.569 156.061 168.088 142.267 181.864 131.704L182.089 131.532L182.347 131.405C193.892 125.746 207.493 122.393 222.772 121.441C250.277 119.727 279.15 129.523 300.011 147.647C318.804 163.974 329.116 185.116 329.046 207.177C328.969 231.182 319.606 252.289 301.97 268.215C283.787 284.636 257.98 293.946 230.844 293.946ZM228.708 288.662C255.163 289.18 280.401 280.344 298.005 264.446C314.523 249.529 323.292 229.721 323.365 207.162C323.43 186.577 313.756 166.804 296.125 151.487C276.392 134.343 249.11 125.075 223.153 126.692C208.79 127.588 196.043 130.697 185.261 135.932C172.372 145.877 162.526 158.829 156.78 173.404C146.783 198.735 149.913 226.339 165.367 249.14C173.935 261.781 185.98 272.229 200.201 279.354C203.215 280.862 206.33 282.229 209.458 283.418C210.895 283.968 212.453 284.519 214.228 285.105C218.944 286.635 223.819 287.832 228.708 288.662Z" fill="#371A45"/>
<path d="M231.158 284.716C212.836 284.716 194.173 280 177.409 270.637L177.088 270.457L169.214 262.826C168.81 262.306 159.23 249.911 151.862 235.764C144.287 221.219 145.444 199.399 145.497 198.477L145.555 198.074C155.148 155.972 181.469 133.287 223.787 130.649C248.338 129.116 274.117 137.862 292.739 154.04C309.523 168.621 318.733 187.505 318.672 207.214C318.583 235.769 303.418 260.028 277.065 273.772C263.045 281.083 247.232 284.716 231.158 284.716ZM180.662 266.307C210.323 282.737 246.16 283.848 274.278 269.184C298.797 256.397 312.908 233.804 312.991 207.199C313.047 188.966 304.475 171.451 288.853 157.879C271.359 142.682 247.175 134.467 224.169 135.9C184.766 138.357 160.204 159.57 151.162 198.951C151.065 201.126 150.4 220.844 156.979 233.476C163.704 246.39 172.608 258.162 173.713 259.606L180.662 266.307Z" fill="#371A45"/>
<path d="M359.233 200.706C361.518 218.354 352.033 234.456 338.043 236.668C324.053 238.881 310.86 226.366 308.575 208.718C308.558 208.608 308.547 208.49 308.536 208.378C306.411 190.864 315.873 174.951 329.765 172.756C340.572 171.046 350.904 178.126 356.1 189.569C357.628 192.939 358.713 196.693 359.233 200.706Z" fill="white"/>
<g opacity="0.35">
<path d="M359.232 200.705C361.517 218.353 352.032 234.455 338.041 236.667C324.051 238.88 310.859 226.365 308.574 208.717C308.557 208.607 308.545 208.489 308.535 208.377C310.308 209.945 312.932 211.35 316.098 210.236C321.641 208.283 330.366 195.322 330.366 195.322C330.366 195.322 341.507 192.76 356.098 189.568C357.626 192.938 358.712 196.692 359.232 200.705Z" fill="#371A45"/>
</g>
<path d="M334.788 239.555C329.809 239.555 324.928 237.978 320.486 234.906C312.542 229.413 307.172 219.981 305.754 209.029C303.295 190.037 313.853 172.601 329.289 170.16C335.539 169.172 341.776 170.677 347.323 174.514C355.268 180.007 360.637 189.439 362.055 200.392C364.514 219.383 353.956 236.819 338.52 239.26C337.274 239.457 336.027 239.555 334.788 239.555ZM332.984 175.132C332.072 175.132 331.157 175.204 330.245 175.348C317.748 177.325 309.291 192.152 311.395 208.402C312.61 217.789 317.279 226.121 323.884 230.688C328.154 233.641 332.886 234.812 337.564 234.071C350.062 232.095 358.519 217.268 356.415 201.018C355.199 191.63 350.53 183.299 343.926 178.731C340.487 176.354 336.751 175.132 332.984 175.132Z" fill="#371A45"/>
<path d="M343.087 232.008C354.613 231.758 363.668 220.103 363.311 205.976C362.954 191.85 353.321 180.6 341.794 180.85C330.268 181.1 321.213 192.755 321.57 206.882C321.927 221.008 331.56 232.258 343.087 232.008Z" fill="white"/>
<path d="M342.758 232.313C340.824 232.313 338.877 231.984 336.952 231.322C325.698 227.453 318.984 213.154 321.985 199.449C323.659 191.808 328.04 185.662 334.005 182.588C338.442 180.303 343.262 179.945 347.946 181.555C359.201 185.424 365.915 199.723 362.912 213.428C361.239 221.069 356.858 227.215 350.893 230.289C348.28 231.636 345.532 232.313 342.758 232.313ZM342.142 181.116C339.466 181.116 336.816 181.769 334.294 183.069C328.481 186.065 324.207 192.075 322.568 199.558C319.622 213.009 326.167 227.027 337.159 230.806C341.675 232.359 346.324 232.013 350.605 229.808C356.418 226.812 360.692 220.802 362.331 213.319C365.277 199.868 358.732 185.85 347.74 182.071C345.885 181.433 344.007 181.116 342.142 181.116Z" fill="#371A45"/>
<g opacity="0.35">
<path d="M324.261 219.438C322.373 214.919 321.837 209.902 322.465 205.061C327.72 215.027 338.635 218.088 347.727 211.779C353.604 207.704 357.363 200.65 358.33 193.158C358.666 193.785 358.974 194.449 359.262 195.134C364.062 206.642 360.119 221.413 350.452 228.124C340.785 234.835 329.06 230.94 324.261 219.438Z" fill="#371A45"/>
</g>
<path d="M343.362 234.659C339.665 234.659 336.022 233.48 332.684 231.181C326.248 226.748 321.711 218.543 320.546 209.232C318.544 193.237 326.522 179.127 338.71 177.108C343.375 176.337 348.06 177.457 352.259 180.349C358.695 184.782 363.233 192.987 364.398 202.299C366.4 218.294 358.421 232.404 346.234 234.422C345.276 234.58 344.317 234.659 343.362 234.659ZM341.544 182.139C340.931 182.139 340.319 182.189 339.71 182.29C330.779 183.769 324.587 195.829 326.189 208.625C327.177 216.522 330.872 223.374 336.073 226.957C338.984 228.961 342.153 229.751 345.234 229.241C354.164 227.762 360.356 215.702 358.755 202.905C357.767 195.009 354.071 188.156 348.87 184.573C346.534 182.965 344.033 182.139 341.544 182.139Z" fill="#371A45"/>
<g opacity="0.5">
<path d="M249.354 149.367C249.354 149.367 206.413 154.569 184.219 178.736C184.196 178.762 184.173 178.787 184.149 178.813C179.483 183.903 176.399 190.048 175.169 196.579C173.543 205.216 173.805 211.378 174.263 216.792C175.667 233.258 179.694 240.713 179.694 240.713C168.707 232.808 162.092 223.379 160.774 209.675C160.648 208.324 160.573 206.926 160.545 205.488C160.537 205.157 160.538 204.829 160.544 204.498C160.536 204.495 160.539 204.488 160.547 204.478C160.715 201.561 161.093 197.735 161.914 193.449C164.381 180.523 170.832 163.41 187.539 154.404C218.777 137.565 250.691 147.532 249.354 149.367Z" fill="white"/>
</g>
<g opacity="0.5">
<path d="M285.97 201.834C292.805 199.504 296.004 191.719 293.115 184.445C290.227 177.17 282.344 173.162 275.509 175.492C268.674 177.822 265.475 185.608 268.363 192.882C271.252 200.156 279.135 204.164 285.97 201.834Z" fill="white"/>
</g>
<g opacity="0.5">
<path d="M296.308 218.746C299.021 217.546 300.012 214.231 298.523 211.341C297.033 208.452 293.627 207.083 290.914 208.283C288.201 209.484 287.209 212.799 288.699 215.688C290.188 218.578 293.595 219.947 296.308 218.746Z" fill="white"/>
</g>
<path d="M226.628 378.433L92.7301 377.571C87.7128 377.533 83.2564 374.599 81.5686 370.224L79.1699 363.985L39.9801 262.188C36.7548 253.813 43.4944 245.02 53.0896 245.078L182.953 245.855C183.676 245.86 184.387 245.914 185.086 246.021C189.999 246.76 194.178 249.919 195.89 254.359L237.958 363.658C240.744 370.888 234.923 378.487 226.628 378.433Z" fill="#008CFF"/>
<g opacity="0.35">
<path d="M86.6165 375.96L220.364 376.821C228.659 376.874 234.479 369.275 231.693 362.046L189.625 252.747C188.767 250.52 187.288 248.616 185.407 247.178C191.205 268.049 200.2 311.265 184.038 336.133C164.524 366.149 100.618 365.206 79.168 363.985L81.5669 370.224C82.5575 372.792 84.5057 374.857 86.9574 376.138C86.844 376.078 86.728 376.022 86.6165 375.96Z" fill="#371A45"/>
</g>
<g opacity="0.4">
<path d="M45.1924 261.974L89.4051 376.827C86.226 375.686 83.6538 373.314 82.4631 370.224L40.8746 262.188C37.6493 253.813 44.3889 245.02 53.9841 245.078L183.848 245.855C189.056 245.882 193.755 248.624 196.079 252.844C195.686 252.785 195.287 252.752 194.876 252.752L52.909 251.901C47.2617 251.869 43.2906 257.047 45.1924 261.974Z" fill="white"/>
</g>
<path d="M226.713 380.833C226.68 380.833 226.646 380.833 226.613 380.832L92.7138 379.968C86.6311 379.929 81.1719 376.336 79.1287 371.029L37.5368 262.996C35.7119 258.256 36.4687 253.184 39.6124 249.08C42.7351 245.005 47.6081 242.674 52.9956 242.674C53.0323 242.674 53.0695 242.674 53.1066 242.674L182.968 243.451C189.845 243.493 196.017 247.552 198.327 253.552L240.4 362.848C241.991 366.983 241.304 371.587 238.56 375.166C235.836 378.719 231.414 380.833 226.713 380.833ZM226.648 376.03C226.671 376.03 226.694 376.03 226.717 376.03C229.783 376.03 232.557 374.704 234.335 372.385C236.126 370.048 236.557 367.16 235.518 364.461L193.445 255.166C191.864 251.059 187.641 248.282 182.935 248.253L53.0733 247.476C53.0479 247.476 53.0221 247.476 52.9972 247.476C49.3101 247.476 45.9758 249.071 43.839 251.86C41.6874 254.668 41.1697 258.139 42.4184 261.382L84.0103 369.415C85.3248 372.83 88.837 375.141 92.7496 375.166L226.648 376.03Z" fill="#371A45"/>
<path d="M147.106 309.61L142.409 314.124C141.942 314.569 141.626 315.123 141.481 315.711C141.362 316.176 141.357 316.669 141.463 317.152L141.672 318.098L142.813 323.293C143.422 326.041 140.361 328.243 137.632 327.017L131.546 324.276C130.464 323.79 129.196 323.826 128.147 324.377L122.258 327.464C119.622 328.849 116.419 326.831 116.836 324.052L117.771 317.843C117.934 316.736 117.503 315.628 116.618 314.877L111.625 310.647C109.485 308.831 110.383 305.595 113.084 304.889C113.203 304.859 113.328 304.833 113.454 304.811L120.117 303.714C121.299 303.517 122.305 302.795 122.802 301.782L125.054 297.203L125.606 296.078C126.863 293.521 130.735 293.408 132.163 295.884L135.347 301.417C135.912 302.397 136.965 303.059 138.16 303.186L144.883 303.891C147.894 304.21 149.204 307.585 147.106 309.61Z" fill="#FFDA22"/>
<g opacity="0.6">
<path d="M147.104 309.611L142.408 314.124C141.941 314.569 141.625 315.123 141.479 315.711C141.254 315.588 141.032 315.456 140.81 315.323C140.348 315.041 139.873 314.736 139.626 314.282C139.322 313.72 139.43 313.023 139.769 312.485C140.112 311.942 140.652 311.535 141.224 311.196C142.14 310.653 143.281 310.103 143.424 309.1C143.53 308.359 142.991 307.643 142.293 307.268C141.595 306.893 140.765 306.799 139.963 306.748C138.826 306.671 137.68 306.667 136.54 306.729C135.752 306.772 134.944 306.847 134.179 306.672C132.488 306.282 131.381 304.772 130.789 303.26C130.191 301.744 129.947 300.108 129.151 298.676C128.971 298.351 128.751 298.027 128.433 297.812C128.123 297.609 127.742 297.517 127.37 297.443C126.593 297.293 125.824 297.22 125.053 297.203L125.605 296.078C126.862 293.521 130.733 293.408 132.161 295.884L135.345 301.417C135.911 302.397 136.963 303.059 138.159 303.186L144.882 303.891C147.892 304.21 149.203 307.585 147.104 309.611Z" fill="white"/>
</g>
<path d="M142.813 323.293C143.422 326.04 140.361 328.242 137.632 327.016L131.546 324.275C130.464 323.789 129.196 323.825 128.147 324.377L122.258 327.464C119.622 328.849 116.419 326.831 116.836 324.051L117.771 317.843C117.934 316.736 117.503 315.628 116.618 314.876L111.625 310.646C109.485 308.83 110.383 305.594 113.084 304.889C113.129 305.012 113.18 305.139 113.254 305.282C113.733 306.24 114.588 307.058 115.521 307.649C117.319 308.795 119.497 309.497 120.899 311.04C122.873 313.217 122.738 316.351 122.923 319.189C122.959 319.686 123.029 320.236 123.432 320.569C123.816 320.885 124.393 320.908 124.895 320.822C126.582 320.525 127.977 319.22 129.692 319.172C132.039 319.106 137.077 323.94 138.937 322.577C140.419 321.492 138.07 317.816 141.672 318.098L142.813 323.293Z" fill="#FFAA00"/>
<path d="M120.453 329.984C119.298 329.984 118.148 329.665 117.145 329.034C115.276 327.857 114.308 325.838 114.62 323.765L115.552 317.557C115.617 317.128 115.449 316.697 115.105 316.405L110.114 312.173C108.447 310.76 107.803 308.633 108.433 306.623C109.063 304.612 110.837 303.136 113.062 302.77L119.723 301.673C120.183 301.597 120.574 301.317 120.767 300.923L123.569 295.217C124.504 293.312 126.488 292.087 128.747 292.021C131.018 291.949 133.069 293.062 134.133 294.908V294.909L137.317 300.44C137.537 300.821 137.945 301.078 138.409 301.127L145.132 301.833C147.378 302.068 149.248 303.438 150.013 305.408C150.779 307.378 150.281 309.538 148.714 311.046L144.02 315.56C143.696 315.872 143.558 316.312 143.652 316.736L145.005 322.878C145.456 324.929 144.628 327 142.843 328.283C141.058 329.566 138.687 329.795 136.653 328.88L130.569 326.139C130.149 325.949 129.655 325.964 129.248 326.178L123.362 329.268C122.451 329.746 121.45 329.984 120.453 329.984ZM128.933 296.163C128.917 296.163 128.902 296.163 128.888 296.164C128.623 296.171 127.971 296.262 127.641 296.933L124.839 302.639C124.036 304.275 122.416 305.439 120.506 305.754L113.845 306.85C113.06 306.979 112.804 307.542 112.729 307.778C112.655 308.015 112.547 308.617 113.134 309.115L118.125 313.347C119.557 314.561 120.251 316.348 119.984 318.128L119.051 324.336C118.941 325.067 119.44 325.468 119.659 325.605C119.879 325.743 120.463 326.025 121.157 325.662L127.043 322.571C128.732 321.685 130.782 321.626 132.526 322.412L138.61 325.152C139.328 325.476 139.891 325.159 140.101 325.008C140.311 324.858 140.781 324.429 140.622 323.707L139.268 317.564C138.88 315.804 139.452 313.979 140.798 312.685L145.491 308.17C146.044 307.639 145.895 307.043 145.805 306.812C145.714 306.581 145.42 306.034 144.629 305.95L137.906 305.245C135.978 305.043 134.282 303.975 133.369 302.389L130.185 296.858V296.859C129.83 296.242 129.221 296.163 128.933 296.163Z" fill="#371A45"/>
<path d="M431.009 264.819C430.287 264.819 429.606 264.411 429.336 263.748C428.985 262.892 429.45 261.935 430.374 261.611C431.157 261.335 449.738 254.903 463.462 259.13C464.4 259.419 464.907 260.358 464.595 261.226C464.283 262.096 463.27 262.564 462.333 262.277C449.828 258.426 431.823 264.647 431.643 264.71C431.434 264.784 431.22 264.819 431.009 264.819Z" fill="#371A45"/>
<path d="M363.851 275.631C363.851 275.631 406.249 317.595 378.494 339.297C355.159 357.542 330.169 333.122 330.169 333.122C330.169 333.122 327.356 341.187 318.788 344.715C308.273 349.044 295.871 341.187 295.871 341.187C295.871 341.187 291.315 352.495 281.999 349.125C272.04 345.523 279.201 312.655 299.294 294.061C322.54 272.549 356.869 291.289 356.869 291.289" fill="white"/>
<g opacity="0.35">
<path d="M387.912 320.586C387.887 327.435 385.295 333.978 378.492 339.296C355.161 357.544 330.164 333.12 330.164 333.12C330.164 333.12 327.353 341.187 318.787 344.717C308.272 349.045 295.871 341.187 295.871 341.187C295.871 341.187 291.316 352.496 281.999 349.123C277.755 347.586 276.621 340.749 278.273 331.961C278.397 338.096 280.016 342.34 283.223 342.946C292.178 344.639 290.467 329.512 290.467 329.512C290.467 329.512 297.141 343.9 312.075 339.242C326.705 334.668 330.164 320.658 330.164 320.658C330.164 320.658 359.748 344.639 379.762 330.557C383.824 327.693 386.435 324.302 387.912 320.586Z" fill="#371A45"/>
</g>
<path d="M364.481 275.084C366.808 276.644 368.853 278.426 370.792 280.316C372.736 282.2 374.527 284.211 376.21 286.303C379.541 290.505 382.519 294.989 384.894 299.795C385.52 300.98 386.021 302.228 386.583 303.444C387.061 304.7 387.61 305.924 388.01 307.212C388.933 309.738 389.583 312.376 390.037 315.054C390.492 317.736 390.584 320.506 390.359 323.274C390.087 326.052 389.306 328.803 388.141 331.414C387.451 332.674 386.833 333.975 385.932 335.116L385.301 335.997L384.984 336.436L384.621 336.839L383.156 338.443C382.691 339.002 382.094 339.424 381.565 339.916C381.014 340.382 380.487 340.888 379.911 341.317L378.167 342.581C377.592 343.008 376.942 343.357 376.332 343.747C373.838 345.242 371.115 346.477 368.222 347.294C365.33 348.106 362.293 348.487 359.286 348.456C353.245 348.395 347.45 346.708 342.303 344.247C339.72 343.013 337.261 341.595 334.934 340.022C333.769 339.237 332.641 338.409 331.537 337.549C330.422 336.67 329.394 335.821 328.288 334.775L332.635 333.861C332.431 334.41 332.264 334.777 332.061 335.206C331.863 335.619 331.659 336.022 331.437 336.416C331.006 337.211 330.514 337.969 329.995 338.714C328.95 340.196 327.727 341.583 326.328 342.826C324.929 344.067 323.361 345.166 321.656 346.064C320.776 346.47 319.938 346.92 318.965 347.211L317.544 347.687L316.082 347.997C312.148 348.797 308.211 348.332 304.6 347.437C302.799 346.954 301.044 346.371 299.359 345.664C298.52 345.304 297.689 344.93 296.873 344.524C296.042 344.099 295.29 343.714 294.408 343.169L298.299 342.027C297.931 342.893 297.585 343.535 297.17 344.254C296.762 344.952 296.315 345.631 295.819 346.293C294.823 347.61 293.647 348.875 292.143 349.937C290.652 350.99 288.778 351.837 286.738 352.065C285.728 352.194 284.698 352.174 283.725 352.027C282.726 351.892 281.848 351.645 280.917 351.301C279.84 350.86 278.849 350.214 278.146 349.445L277.619 348.867C277.451 348.672 277.336 348.469 277.195 348.268L276.799 347.659C276.68 347.455 276.594 347.252 276.492 347.047C275.711 345.411 275.325 343.788 275.147 342.223C274.769 339.079 275.016 336.071 275.449 333.121C276.373 327.233 278.248 321.611 280.666 316.213C283.11 310.828 286.106 305.649 289.781 300.864C291.614 298.471 293.603 296.171 295.765 294.002C297.887 291.835 300.388 289.78 303.044 288.039C308.374 284.488 314.781 282.39 321.219 281.657C324.447 281.283 327.692 281.266 330.902 281.442C334.108 281.657 337.301 282.012 340.412 282.693C343.521 283.373 346.546 284.337 349.413 285.601C352.265 286.905 354.983 288.434 357.307 290.6C357.655 290.923 357.653 291.447 357.303 291.769C357.081 291.974 356.771 292.048 356.485 291.99L356.43 291.979C350.397 290.725 344.84 288.959 339.123 287.711C336.276 287.078 333.408 286.506 330.505 286.295C327.609 286.043 324.701 286.102 321.851 286.423C316.16 287.081 310.653 288.883 306.017 291.973C301.374 294.977 297.449 299.201 294.012 303.638C290.579 308.103 287.752 312.99 285.451 318.061C283.173 323.135 281.415 328.449 280.581 333.801C280.184 336.464 279.988 339.166 280.296 341.668C280.427 342.923 280.753 344.099 281.208 345.056C281.678 346.023 282.28 346.62 282.902 346.865C285.073 347.679 287.129 347.463 289.005 346.116C289.943 345.457 290.805 344.558 291.562 343.554C291.939 343.05 292.291 342.517 292.613 341.967C292.924 341.438 293.25 340.802 293.443 340.348L293.449 340.333C293.975 339.088 295.49 338.475 296.833 338.963C297.008 339.026 297.183 339.113 297.334 339.205C297.89 339.551 298.648 339.951 299.332 340.297C300.04 340.649 300.765 340.974 301.495 341.288C302.962 341.905 304.471 342.401 305.99 342.81C309.027 343.564 312.167 343.897 315.022 343.297L316.089 343.078L317.105 342.729C317.789 342.542 318.453 342.174 319.122 341.874C320.424 341.186 321.634 340.34 322.733 339.367C323.831 338.393 324.812 337.284 325.658 336.085C326.075 335.483 326.478 334.867 326.823 334.23C327.001 333.914 327.164 333.591 327.317 333.272C327.464 332.969 327.623 332.594 327.702 332.385L327.71 332.365C328.189 331.101 329.683 330.436 331.047 330.88C331.435 331.006 331.779 331.217 332.049 331.471C332.872 332.249 333.897 333.11 334.885 333.883C335.891 334.666 336.924 335.425 337.989 336.142C340.115 337.58 342.352 338.867 344.669 339.974C349.292 342.188 354.323 343.608 359.342 343.655C361.846 343.679 364.335 343.367 366.723 342.698C369.11 342.021 371.384 340.993 373.514 339.717C374.035 339.38 374.589 339.093 375.087 338.718L376.601 337.622C377.1 337.252 377.526 336.828 377.994 336.436C378.434 336.023 378.956 335.671 379.326 335.206L380.533 333.886L380.836 333.556L381.089 333.197L381.599 332.481C382.344 331.558 382.819 330.5 383.392 329.491C384.319 327.378 384.97 325.153 385.197 322.833C385.369 320.513 385.332 318.145 384.896 315.781C384.061 311.055 382.247 306.403 379.881 301.988C377.557 297.549 374.83 293.251 371.934 289.027C369.042 284.799 366.034 280.597 363.22 276.178L363.208 276.159C362.961 275.771 363.1 275.272 363.518 275.043C363.829 274.873 364.206 274.901 364.481 275.084Z" fill="#371A45"/>
<path d="M290.708 328.153C291.61 330.453 292.56 332.62 293.694 334.549C294.249 335.521 294.917 336.384 295.51 337.234C296.119 338.087 296.793 338.809 297.386 339.66L297.541 339.884C298.213 340.85 297.913 342.138 296.87 342.76C296.079 343.233 295.086 343.185 294.36 342.712C293.106 341.895 292.099 340.786 291.375 339.586C290.651 338.384 290.185 337.088 289.894 335.801C289.603 334.51 289.477 333.215 289.494 331.937C289.53 330.654 289.673 329.395 290.069 328.153C290.121 327.99 290.306 327.896 290.483 327.944C290.588 327.973 290.666 328.045 290.701 328.133L290.708 328.153Z" fill="#371A45"/>
<path d="M331.023 320.038C331.677 321.045 332.151 322.151 332.501 323.28C332.829 324.41 333.072 325.572 333.183 326.732C333.294 327.892 333.356 329.063 333.223 330.214C333.089 331.377 332.879 332.476 332.336 333.636C331.839 334.697 330.507 335.184 329.361 334.723C328.503 334.378 327.993 333.6 328 332.785L328.002 332.607C328.012 331.639 328.218 330.582 328.419 329.58C328.619 328.564 328.912 327.556 329.155 326.533C329.407 325.508 329.628 324.478 329.841 323.424C330.061 322.367 330.21 321.302 330.398 320.165L330.4 320.152C330.428 319.981 330.6 319.864 330.784 319.89C330.887 319.905 330.973 319.962 331.023 320.038Z" fill="#371A45"/>
<path d="M367.829 346.964C367.441 346.964 367.046 346.87 366.688 346.672C365.626 346.087 365.278 344.816 365.909 343.832C379.8 322.2 345.29 288.82 344.94 288.485C344.08 287.664 344.101 286.352 344.988 285.555C345.875 284.759 347.291 284.779 348.15 285.599C349.678 287.058 385.391 321.599 369.754 345.951C369.336 346.603 368.592 346.964 367.829 346.964Z" fill="#371A45"/>
</svg>
