<svg xmlns="http://www.w3.org/2000/svg" width="214" height="132.057" viewBox="0 0 214 132.057" fill="none">
  <path d="M 193.313 54.002 C 186.735 40.721 172.951 31.568 157.001 31.568 C 156.175 31.568 155.348 31.598 154.533 31.652 C 147.116 22.906 136 17.344 123.563 17.344 C 120.545 17.344 117.612 17.678 114.788 18.299 C 107.582 7.289 95.078 0 80.842 0 C 62.774 0 47.482 11.734 42.304 27.924 C 30.747 32.249 21.713 41.659 18.002 53.405 C 7.151 60.58 0 72.815 0 86.706 C 0 108.805 18.098 126.722 40.421 126.722 C 44.47 126.722 48.375 126.124 52.056 125.031 C 57.343 127.54 63.257 128.944 69.509 128.944 C 72.212 128.944 74.85 128.675 77.402 128.173 C 82.665 130.659 88.561 132.057 94.783 132.057 C 106.327 132.057 116.737 127.253 124.106 119.57 C 131.13 125.419 140.194 128.944 150.091 128.944 C 154.177 128.944 158.118 128.341 161.835 127.224 C 165.553 128.341 169.493 128.944 173.579 128.944 C 195.902 128.944 214 111.027 214 88.928 C 214 73.92 205.648 60.849 193.301 54.002 L 193.313 54.002 Z" fill="rgb(251,251,251)" fill-rule="nonzero"></path>
</svg>