<svg xmlns="http://www.w3.org/2000/svg" width="305.983" height="191" viewBox="0 0 305.983 191" fill="none">
  <path d="M 276.404 78.106 C 266.998 58.897 247.29 45.659 224.485 45.659 C 223.302 45.659 222.12 45.702 220.955 45.78 C 210.351 33.129 194.457 25.085 176.673 25.085 C 172.359 25.085 168.165 25.569 164.127 26.467 C 153.824 10.542 135.945 0 115.59 0 C 89.756 0 67.891 16.971 60.487 40.388 C 43.963 46.644 31.046 60.253 25.739 77.242 C 10.225 87.619 0 105.316 0 125.406 C 0 157.369 25.878 183.284 57.795 183.284 C 63.585 183.284 69.168 182.42 74.431 180.838 C 81.99 184.467 90.446 186.498 99.385 186.498 C 103.251 186.498 107.022 186.109 110.672 185.383 C 118.196 188.978 126.626 191 135.523 191 C 152.029 191 166.914 184.053 177.449 172.94 C 187.493 181.4 200.454 186.498 214.605 186.498 C 220.446 186.498 226.081 185.625 231.396 184.009 C 236.711 185.625 242.346 186.498 248.188 186.498 C 280.105 186.498 305.983 160.584 305.983 128.621 C 305.983 106.915 294.041 88.008 276.386 78.106 L 276.404 78.106 Z" fill="rgb(251,251,251)" fill-rule="nonzero"></path>
</svg>