<svg xmlns="http://www.w3.org/2000/svg" width="354.610" height="221.040" viewBox="0 0 354.610 221.040" fill="none">
  <path d="M 320.33 90.39 C 309.43 68.16 286.59 52.84 260.16 52.84 C 258.79 52.84 257.42 52.89 256.07 52.98 C 243.78 38.34 225.36 29.03 204.75 29.03 C 199.75 29.03 194.89 29.59 190.21 30.63 C 178.27 12.2 157.55 0 133.96 0 C 104.02 0 78.68 19.64 70.1 46.74 C 50.95 53.98 35.98 69.73 29.83 89.39 C 11.85 101.4 0 121.88 0 145.13 C 0 182.12 29.99 212.11 66.98 212.11 C 73.69 212.11 80.16 211.11 86.26 209.28 C 95.02 213.48 104.82 215.83 115.18 215.83 C 119.66 215.83 124.03 215.38 128.26 214.54 C 136.98 218.7 146.75 221.04 157.06 221.04 C 176.19 221.04 193.44 213 205.65 200.14 C 217.29 209.93 232.31 215.83 248.71 215.83 C 255.48 215.83 262.01 214.82 268.17 212.95 C 274.33 214.82 280.86 215.83 287.63 215.83 C 324.62 215.83 354.61 185.84 354.61 148.85 C 354.61 123.73 340.77 101.85 320.31 90.39 L 320.33 90.39 Z" fill="rgb(251,251,251)" fill-rule="nonzero"></path>
</svg>